<svg xmlns="http://www.w3.org/2000/svg" id="Layer_2" viewBox="-230 322 150 150"><style>.st0{fill:#1A1B1E;}</style><path d="M-132.8 372.1s-10.3-3.7-12.7-12.6v-.1h-4.1c.1-2.2 1-2.5 1.4-2.7 4.5-1.6 6.4-3.9 6.2-7.2-.1-1.4-.8-2.7-1.9-3.6-3.4-2.8-20.9-2.8-24.3 0-1.2.9-1.8 2.2-1.9 3.6-.3 3.4 1.6 5.6 6.2 7.2.2.2 1.1.5 1.2 2.7h-6v.1c-3.8 8.2-10 12-12.2 12.9-6.6 3.1-16.3 7.1-19.5 13.1l3 29.4h3.1l2.6 28.4h.1c-.5 3.7 3 5.1 4.5 6 1.8 1.1 2.9 3.9 2.8 3.9h6.1c.2-2.1-.6-3.7-1.2-4.5-1.9-2.5-2-4.9-2-5.4h49.7c0 .5-.1 3-2 5.4-.6.8-1.3 2.4-1.2 4.5h6.1c-.1 0 .9-2.8 2.8-3.9 1.5-.9 5.1-2.3 4.5-6.1l2-28.3h3.1l2.6-30.6c-4.1-5.6-12.5-9.9-19-12.2zm-30.3-17.9c-4.6-1.7-4.5-3.4-4.4-4.5.1-.7.3-1.2.9-1.7 2.2-1.8 18.7-1.8 20.9 0 .6.5.9 1 .9 1.7.1 1.1.2 2.8-4.4 4.5-2.1.8-3.1 2.5-3.1 5.2h-7.7c0-2.7-1.1-4.5-3.1-5.2zm16.3 50.2h-.8V422l-8.3 4-7.7-4v-17.6h-.8v-3.6h17.6v3.6z" class="st0"/><path d="M-159.2 413.6l-.3-2.3h.1l.9 1.9 2.3 3.5h1.1l2.1-3.5.9-1.9h.1l-.2 2.3-.1 5.1h2.8v-11.2h-3l-2.4 4.2-.6 1.5h-.1l-.6-1.4-2.6-4.2h-3v11.2h2.6z" class="st0"/></svg>