<svg id="Layer_2" xmlns="http://www.w3.org/2000/svg" viewBox="-230 322 150 150"><style>.st0{fill:#1a1b1e;}</style><path class="st0" d="M-149.9 443.8c.1.2.1.2 0 0zM-159.2 441.1c-.1.2-.1.2 0 0zM-123.8 422.2c1.1-1.1 1.7-2.6 1.6-4.1v-.5c0-.3-.1-.5-.2-.8-.2-.9-.7-1.7-1.3-2.3-1.4-1.4-3.4-1.9-5.3-1.4h-.1c-.1 0-.2.1-.3.1-.1 0-.3.1-.4.2-.1 0-.2.1-.2.1-.5.2-.9.5-1.3.9-.1-.8-.3-1.6-.6-2.5-.1-.6-.2-1-.2-1-.7-2.4-1.9-4.4-3-5.9-.2-.3-.4-.5-.6-.7 0 0 0-.1-.1-.1-.6-.7-1.2-1.5-1.9-2.1-1.2-1.2-2.6-2.3-4-3.2l3-2.9s.1 0 .1.1c0 0 4.4-3 7.3-1.2.8.5 1.3 1.4 1.3 2.4-.1 1.6-1.3 3.4-3.1 3.3-2.1-.2-1.5-2.3-.1-2.5 1.2-.2.8-1.2-.2-1.5-2.3-.6-4.6 2.1-3.1 4.6.6 1 1.4 1.5 2.4 1.7.2.1.5.1.7.2.2 0 .3 0 .4-.1.3 0 .5 0 .8-.1h.1c1.3-.2 2.6-.9 3.5-1.9 1.1-1.1 1.7-2.5 1.6-4-.1-1.4-.8-2.7-1.9-3.7h.1s-.6-.5-1.6-1c-1.2-.6-2.6-.9-4-.6v-3.2c1.9-.6 3.4-1.6 4.1-2.2 2.4-1.5 4.4-3.7 4.4-6.1-.1-2.1-1.7-4-3.6-5-.1-.2-.2-.3-.4-.4-.9-.3-1.5-.7-2-1.1-.5-.5-.9-1-1.1-1.6-.2-.8-.1-1.7.2-2.6.2-.4.5-.7 1-1 .4-.3 1-.4 1.5-.5.8 0 1.8.3 3 1.3 1.1 1.9-1.1 2.5-2.1 1.5-.8-.9-1.5 0-1.2 1 .6 1.8 2.8 2.4 4.3 1.4.1 0 .2 0 .2-.1.2-.2.4-.4.6-.7.1-.1.1-.2.2-.3 0-.1.1-.1.1-.2 0 0 0-.1.1-.1 0-.1 0-.1.1-.2s.1-.3.2-.4c.3-1 .2-2.2-.5-3-.5-.8-1.3-1.5-2.1-2-.8-.4-1.6-.7-2.4-.8h-.4c-.4 0-.7-.1-1.1 0-.1 0-.2 0-.2.1-1.2.2-2.1.7-2.8 1.5v-1.2l.1.1v-1.4-3.7s-.9-.9-1.9-2l-3.4-3.5-.1.2c-.9-.1-9.6.7-9.6.7l3.7-4.1-5.2-4.9-3.9-3.6-3.8 3.6-5.2 4.9 3.7 4.1s-8.7-.7-9.6-.7l-.1-.2-3.4 3.5c-1.1 1.1-2 2-1.9 2v5.1l.1-.1v1.2c-.7-.8-1.6-1.3-2.8-1.5-.1-.1-.1-.1-.2-.1h-1.5c-.8.1-1.6.4-2.4.8-.9.5-1.6 1.2-2.1 2-.7.9-.8 2-.5 3 0 .1.1.3.2.4 0 .1 0 .1.1.2 0 0 0 .1.1.1 0 .1.1.1.1.2.1.1.1.2.2.3.2.2.4.5.6.7.1.1.2.1.2.1 1.5 1 3.8.4 4.3-1.4.3-1-.4-1.9-1.2-1-.9 1-3.1.4-2.1-1.5 1.1-1 2.1-1.3 2.9-1.3.6.1 1.1.2 1.5.5.4.3.7.6 1 1 .3.9.4 1.8.2 2.6-.2.6-.6 1.1-1.1 1.6-.5.4-1.2.8-2 1.1-.2.1-.3.2-.4.4-1.9 1-3.6 2.9-3.6 5-.1 2.4 2 4.6 4.4 6.1.7.5 2.2 1.6 4.1 2.2v3.2c-1.4-.3-2.8 0-4 .6-1 .5-1.6 1-1.6 1h.1c-1.1 1-1.8 2.3-1.9 3.7-.1 1.5.5 2.9 1.6 4 .9.9 2.2 1.6 3.5 1.8h.1c.3 0 .5.1.8.1.1 0 .3.1.4.1.2 0 .5-.1.7-.2.9-.2 1.8-.7 2.4-1.7 1.5-2.4-.8-5.2-3.1-4.6-1 .3-1.4 1.4-.2 1.5 1.4.2 2 2.4-.1 2.5-1.8.1-3.1-1.8-3.1-3.3 0-1 .5-1.8 1.3-2.4 2.9-1.8 7.3 1.2 7.3 1.2.1 0 .1 0 .1-.1l3 2.9c-1.4.9-2.7 2-4 3.2-.7.7-1.3 1.4-1.9 2.1 0 0 0 .1-.1.1-.2.2-.4.5-.5.7-1.1 1.5-2.3 3.6-3 5.9 0 0-.1.4-.2 1-.2.8-.4 1.6-.6 2.5-.4-.4-.9-.7-1.3-.9-.1 0-.2-.1-.2-.1-.1-.1-.3-.1-.4-.2-.1 0-.2-.1-.3-.1h-.1c-1.8-.5-3.8 0-5.3 1.4-.7.7-1.1 1.5-1.3 2.3-.1.2-.1.5-.2.7v.5c-.1 1.5.5 3 1.6 4.1 2.1 2.1 5.5 2.1 7.7 0 .1.4.1.8.2 1.1h-.9v.1c-.9 0-1.9.1-2.7.5-.2 0-.4 0-.6.2-.8.8-1.4 1.7-1.5 2.7v.7h-.1c0 .1 0 .2.1.3v.2c.1.4.2.8.4 1.1 1.1 2.5 3.4 2.1 3.4 2.1h.1c.5-.1.9-.2 1.3-.5 1.2-.6 1.5-1.4 1.4-1.9 0-.3-.1-.5-.2-.8-.1-.2-.2-.2-.2-.2-.6-.6-1.1-.5-1.5-.2-.2.1-.4.3-.6.5 0 .1-.1.1-.1.1s-.1 0-.1.1c-.1.1-.2.1-.4.1s-.4-.1-.5-.1c-.3-.2-.3-.8-.2-1.2 0-.1 0-.2.1-.2v-.1-.1c.1-.1.2-.2.3-.2.5-.2 1.1-.3 1.7-.3l.9.2s1.3 3.1 4.3 6.3c.5.6 1.1 1.3 1.7 1.9 3.2 3.2 7.1 5.2 11.2 6.1l1.8.4c0 .1 0 .1-.1.2 0-.1.1-.1.1-.2-1.5 2.1-1.3 5.1.7 7 .9.9 2.1 1.4 3.2 1.5h.4c1.2-.1 2.3-.6 3.2-1.5 1.9-1.9 2.1-4.8.7-7 .1.1.1.2.1.2s0-.1-.1-.2l1.8-.4c4.1-.9 8-2.9 11.2-6.1.6-.6 1.2-1.2 1.7-1.9 3-3.2 4.3-6.3 4.3-6.3l.9-.2c.6 0 1.2.1 1.7.3.1.1.2.1.3.2v.1c0 .1.1.2.1.3.1.4 0 .9-.2 1.2-.1.1-.3.1-.5.1-.1 0-.2-.1-.4-.1 0 0-.1 0-.1-.1l-.1-.1c-.2-.2-.3-.4-.6-.5-.4-.2-.9-.4-1.5.2l-.2.2c-.2.2-.2.5-.2.8 0 .6.2 1.3 1.4 1.9.4.3.8.4 1.3.5h.1s2.3.4 3.4-2.1c.2-.3.3-.7.4-1.1v-.2c0-.1 0-.2.1-.3h-.1v-.1-.2-.5-.1c-.2-1-.7-1.9-1.5-2.7-.2-.2-.4-.2-.6-.2-.8-.4-1.7-.6-2.7-.5v-.1h-.9c.1-.4.2-.8.2-1.1 1.5 2.5 4.9 2.5 7 .4zM-131 377c.9.5 2 1.6 1.4 3.4-.6 1.9-1.9 3.2-3.4 3.9-.3.1-.5.3-.8.4-.3.1-.5.2-.8.3v-10.2c.9 1.1 2.3 2 3.6 2.2zm-44.5 8.1c-.3-.1-.5-.2-.8-.3-.3-.1-.5-.2-.8-.4-1.5-.8-2.8-2-3.4-3.9-.5-1.8.5-2.9 1.4-3.4 1.3-.3 2.7-1.1 3.6-2.2v10.2zm20.6 51.6c-10.1 0-18.4-8.2-18.4-18.4 0-10.1 8.2-18.4 18.4-18.4 10.1 0 18.4 8.2 18.4 18.4-.1 10.2-8.3 18.4-18.4 18.4zM-150.8 441.1c.1.2.1.2 0 0z"/></svg>
