<svg xmlns="http://www.w3.org/2000/svg" id="Layer_1" viewBox="-345 520.5 150 150"><style>.st0{display:none;} .st1{display:inline;fill:url(#SVGID_1_);} .st2{display:inline;} .st3{fill:url(#SVGID_2_);} .st4{fill:url(#SVGID_3_);} .st5{fill:url(#SVGID_4_);} .st6{fill:#1a1b1e;}</style><g class="st0"><linearGradient id="SVGID_1_" x1="-275.71" x2="-251.08" y1="609.81" y2="553.33" gradientUnits="userSpaceOnUse" gradientTransform="matrix(1 0 0 -1 0 1191.6499)"><stop offset="0" stop-color="#FFF"/><stop offset=".81" stop-color="#C0C1C3"/></linearGradient><circle cx="-269.5" cy="596.1" r="15.6" class="st1"/><g class="st2"><radialGradient id="SVGID_2_" cx="-304.02" cy="617.93" r="78.25" gradientTransform="matrix(1 0 0 -1 0 1191.6499)" gradientUnits="userSpaceOnUse"><stop offset=".14" stop-color="#8F9098"/><stop offset=".8" stop-color="#555759"/><stop offset="1" stop-color="#393C3E"/></radialGradient><path d="M-272.4 594.7H-266.6s6.5-10.5 6.3-11.2v-.1c-2.6-1.8-5.7-2.9-9.1-2.9-3.3 0-6.4 1-8.9 2.8-.3.7 5.9 11.4 5.9 11.4z" class="st3"/><radialGradient id="SVGID_3_" cx="-304.03" cy="617.93" r="78.26" gradientTransform="matrix(1 0 0 -1 0 1191.6499)" gradientUnits="userSpaceOnUse"><stop offset=".14" stop-color="#8F9098"/><stop offset=".8" stop-color="#555759"/><stop offset="1" stop-color="#393C3E"/></radialGradient><path d="M-253.8 596.1v-.4c-2.5-.3-12.3-.1-12.3-.1l-1.3 2.2-.3.5-1.3 2.2s3.9 7 5.8 9.8c5.5-2.3 9.4-7.8 9.4-14.2z" class="st4"/><radialGradient id="SVGID_4_" cx="-304.02" cy="617.93" r="78.26" gradientTransform="matrix(1 0 0 -1 0 1191.6499)" gradientUnits="userSpaceOnUse"><stop offset=".14" stop-color="#8F9098"/><stop offset=".8" stop-color="#555759"/><stop offset="1" stop-color="#393C3E"/></radialGradient><path d="M-271.3 598.4l-.3-.5-1.4-2.2s-9.5.2-12.2.6c.1 6.5 4.1 12 9.8 14.3 1.7-2.9 5.4-10.1 5.4-10.1l-1.3-2.1z" class="st5"/></g></g><path d="M-231.4 632.6l-2.8-10.6-3.1 3.2-26.8-26.2c.4-.8.7-1.8.7-2.7 0-3.3-2.7-6-6-6s-5.9 2.7-5.9 6 2.7 6 5.9 6c1.3 0 2.6-.4 3.6-1.2l26.7 26.1-2.9 3 10.6 2.4z" class="st6"/><circle cx="-269.4" cy="596.3" r="6" class="st6"/><path d="M-246.6 570.1l1.4 1-3.7 5.2c-.5-.4-.9-1-1.1-1.6-.3-.6-.5-1.6-.7-3-.1-1.1-.3-1.8-.4-2.1-.2-.4-.4-.7-.7-1-.3-.2-.6-.3-1-.3-.3.1-.6.2-.8.5-.2.3-.3.6-.3.9.1.3.3.6.7 1l-1.2 1.4c-.8-.7-1.1-1.4-1.2-2.1 0-.7.2-1.4.7-2.1.5-.8 1.2-1.2 1.9-1.4.7-.1 1.4 0 2 .4l.9.9c.2.4.4.8.6 1.3.1.3.2.9.3 1.7.1.8.2 1.3.2 1.5.1.2.1.4.2.6l2.2-2.8z" class="st6"/><path d="M-246.5 568.6l.9-1.6c.4.2.7.3 1.1.2.3-.1.6-.2.8-.5.2-.3.3-.7.2-1.1-.1-.4-.4-.8-.9-1.1-.5-.3-.9-.5-1.3-.4-.4 0-.7.2-1 .6-.3.4-.4.9-.3 1.6l-1 1.1-3.5-3.7 2.8-3.9 1.4 1-2 2.8 1.1 1.2c.1-.4.2-.8.5-1.2.5-.7 1.1-1 1.9-1.2.8-.1 1.6.1 2.4.7.6.5 1.1 1.1 1.3 1.8.3 1 .2 1.9-.5 2.8-.5.7-1.1 1.2-1.8 1.3-.7.1-1.4 0-2.1-.4z" class="st6"/><path d="M-236.1 597.9l-1.8.2-.7-6.8c-.6.7-1.3 1.2-2.2 1.6l-.2-1.6c.5-.2.9-.6 1.5-1 .5-.5.8-1 1-1.6l1.5-.2.9 9.4z" class="st6"/><path d="M-234 595.2l1.8-.4c.1.4.3.7.6.9.3.2.6.3.9.3.4 0 .7-.2.9-.6.2-.3.3-.8.2-1.4-.1-.6-.2-1-.5-1.3-.3-.3-.6-.4-1.1-.3-.5.1-1 .3-1.3.8l-1.5-.1.4-5 4.8-.5.2 1.7-3.4.4-.1 1.6c.4-.2.8-.4 1.2-.4.8-.1 1.5.1 2.1.7.6.5 1 1.3 1.1 2.2.1.8-.1 1.5-.5 2.2-.5.9-1.3 1.4-2.4 1.5-.9.1-1.6-.1-2.2-.5-.6-.4-1-1-1.2-1.8z" class="st6"/><path d="M-274.8 624.2v1.8c-.4 0-.8.1-1 .3-.3.2-.4.5-.5.8 0 .4.1.7.3 1 .3.3 1.1.5 1.7.6.6.1.7 0 1-.2.3-.2.5-.5.6-1 .1-.5-.1-1-.5-1.5l.4-1.4 4.8 1.5-.6 4.8-1.7-.2.4-3.4-1.6-.5c.2.4.2.9.2 1.3-.1.8-.5 1.5-1.1 1.9-.7.5-1.4.7-2.4.6-.8-.1-1.4-.4-2-.9-.8-.7-1.1-1.6-1-2.7.1-.9.4-1.6 1-2.1.5-.4 1.2-.7 2-.7z" class="st6"/><path d="M-268.6 635.4c-.1.9-.5 1.6-1.2 2-.8.5-2.2.7-4 .5-1.8-.2-3-.7-3.8-1.4-.6-.6-.8-1.3-.7-2.3.1-.9.5-1.6 1.3-2.1s2.1-.6 3.9-.4c1.8.2 3 .7 3.7 1.4.7.6.9 1.4.8 2.3zm-1.5-.2c0-.2 0-.4-.1-.6-.1-.2-.4-.4-.7-.5-.5-.2-1.2-.3-2.3-.5-1.1-.1-1.9-.2-2.3-.1-.4.1-.7.2-.9.3-.2.2-.2.3-.3.6 0 .2 0 .4.1.6.1.2.4.4.7.5.5.2 1.2.3 2.3.5 1.1.1 1.9.2 2.3.1.4-.1.7-.2.9-.3.2-.2.3-.3.3-.6z" class="st6"/><g><path d="M-300 611.4l-.9-1.5 5.5-3.3c.3.6.4 1.2.4 1.9s-.2 1.7-.6 3c-.3 1.1-.5 1.8-.5 2.1 0 .5.1.8.3 1.2.2.3.5.6.8.6.3.1.6 0 .9-.2.3-.2.5-.5.6-.8s0-.7-.3-1.2l1.7-.8c.4.9.5 1.7.2 2.4s-.8 1.2-1.5 1.7c-.8.5-1.6.7-2.3.5-.7-.2-1.3-.6-1.7-1.2-.2-.4-.4-.8-.4-1.2-.1-.4-.1-.9 0-1.4 0-.4.2-.9.4-1.7.2-.8.4-1.2.4-1.5 0-.2.1-.4.1-.6l-3.1 2z" class="st6"/><path d="M-300.7 612.7l-1.5 1.1c-.3-.3-.6-.5-.9-.6-.3-.1-.7 0-.9.1-.3.2-.5.5-.6.9-.1.4.1.9.4 1.4.3.5.6.8 1 .9.4.1.7.1 1.1-.2.4-.3.7-.7.8-1.3l1.4-.6 1.8 4.7-4.1 2.5-.9-1.5 3-1.8-.6-1.5c-.2.4-.5.7-.9.9-.7.4-1.4.5-2.2.3-.8-.2-1.4-.7-1.9-1.5-.4-.7-.6-1.4-.5-2.2.1-1 .6-1.8 1.6-2.4.8-.5 1.5-.6 2.2-.5.6.3 1.2.6 1.7 1.3z" class="st6"/></g><g><path d="M-297.9 579.8l1.7.7-2.5 6.4c.8-.3 1.7-.5 2.7-.4l-.6 1.5c-.5 0-1.1.1-1.8.3-.7.2-1.2.5-1.6 1l-1.4-.5 3.5-9z" class="st6"/><path d="M-306.8 586.7c-.9-.3-1.4-.9-1.7-1.7-.3-1-.1-2.3.5-4 .6-1.7 1.4-2.8 2.3-3.3.7-.4 1.5-.5 2.4-.1.9.3 1.4.9 1.7 1.8.3.9.1 2.2-.6 3.9-.6 1.7-1.4 2.8-2.3 3.3-.6.4-1.4.4-2.3.1zm.6-1.4c.2.1.4.1.6 0 .2-.1.4-.3.6-.6.3-.4.6-1.1 1-2.2.4-1 .6-1.8.7-2.2 0-.4 0-.7-.1-.9-.1-.2-.3-.3-.5-.4-.2-.1-.4-.1-.6 0-.2.1-.4.3-.6.6-.3.4-.6 1.1-1 2.2-.4 1-.6 1.8-.7 2.2 0 .4 0 .7.1.9.1.2.2.3.5.4z" class="st6"/></g><g><path d="M-271.5 569.8l.5 1.8-6.2 2c.8.5 1.1 1.1 1.6 1.9l-1.6.5c-.3-.4-.7-.8-1.3-1.2-.6-.4-1.2-.6-1.8-.7l-.4-1.4 9.2-2.9z" class="st6"/><path d="M-281.9 567c-.3-.9-.2-1.7.3-2.4.6-.8 1.7-1.5 3.4-2s3.1-.6 4-.2c.8.3 1.3.9 1.6 1.8.3.9.1 1.7-.4 2.5-.5.7-1.7 1.4-3.4 1.9s-3 .6-4 .2c-.7-.3-1.3-.9-1.5-1.8zm1.4-.4c.1.2.2.4.4.5.2.1.5.2.8.2.5 0 1.3-.2 2.3-.5 1.1-.3 1.8-.6 2.2-.8.4-.2.6-.4.7-.6.1-.2.1-.4 0-.6-.1-.2-.2-.4-.4-.5s-.5-.2-.8-.2c-.5 0-1.3.2-2.3.5s-1.8.6-2.2.8c-.4.2-.6.4-.7.6v.6z" class="st6"/><path d="M-284.1 559.9c-.3-.9-.2-1.7.3-2.4.6-.8 1.7-1.5 3.4-2s3.1-.6 4-.2c.8.3 1.3.9 1.6 1.8.3.9.1 1.7-.4 2.5s-1.7 1.4-3.4 1.9-3 .6-4 .2c-.7-.3-1.2-.9-1.5-1.8zm1.5-.4c.1.2.2.4.4.5.2.1.5.2.8.2.5 0 1.3-.2 2.3-.5 1.1-.3 1.8-.6 2.2-.8.4-.2.6-.4.7-.6.1-.2.1-.4 0-.6-.1-.2-.2-.4-.4-.5s-.5-.2-.8-.2c-.5 0-1.3.2-2.3.5-1.1.3-1.8.6-2.2.8-.4.2-.6.4-.7.6-.1.2-.1.4 0 .6z" class="st6"/></g><path d="M-269.6 548.3c-26.2 0-47.5 21.3-47.5 47.5s21.3 47.5 47.5 47.5 47.5-21.3 47.5-47.5-21.3-47.5-47.5-47.5zm35.7 18.6l-34.6 28.3 16.2-42c7.2 2.9 13.5 7.7 18.4 13.7zm-34.5 28.4zm-.1.1v.1h-.1v-.1h.1zm-.1-.2zm-30.4-27.7h1.6l.2-1.6c.2-1.9 3.2-1.6 3 .3l-.1 1.2h1.2c1.9 0 2 3 .1 3h-1.6l-.2 1.6c-.2 1.9-3.2 1.6-3-.3l.1-1.2h-1.2c-2 .1-2.1-2.9-.1-3zm-7.9 1.3l37.9 26.6-25.6-38.2c7.2-4.6 15.7-7.3 24.9-7.3h1.1l-.2 45.4v.1l-.1.1h.1v.1l-46.7-3.4c.7-8.8 3.8-16.8 8.6-23.4zm-6.8 40.3l44.9-13.5h.1l-32.3 33.8c-5.9-5.4-10.3-12.4-12.7-20.3zm44.1 32.7c-5.9 0-11.6-1.1-16.8-3.2l17.9-43 5.6 45.7c-2.2.3-4.5.5-6.7.5zm1.2-46.3zm21.5 40.3l-21.4-40.3 38.1 24.1c-4.1 6.7-9.9 12.3-16.7 16.2zm10.1-28.9c-.4-1.9 2.5-2.6 2.9-.7l.3 1.2 1.2-.4c1.8-.7 2.9 2.1 1.1 2.8l-1.5.6.4 1.6c.4 1.9-2.5 2.6-2.9.7l-.3-1.2-1.2.4c-1.8.7-2.9-2.1-1.1-2.8l1.5-.6-.4-1.6zm-31.6-11.6l42.4-14.1c1.5 4.6 2.4 9.5 2.4 14.6 0 2.8-.3 5.6-.8 8.3l-44-8.8z" class="st6"/></svg>
