<svg xmlns="http://www.w3.org/2000/svg" id="Layer_2" viewBox="-230 322 150 150"><style>.st0{fill:#1a1b1e;}</style><path d="M-146.2 357.5c-.4-3.7 1-4.2 1.4-4.4 5-1.8 7.1-4.3 6.8-8-.1-1.6-.9-3-2.1-4-3.8-3.1-23.1-3.1-26.9 0-1.3 1-2 2.4-2.1 4-.3 3.8 1.8 6.2 6.8 8 .5.2 1.8.7 1.4 4.4-.8.1-1.6.2-2.3.4-12.8 2.2-26.2 8.6-32.7 19.3l-.1 22.5 3.6-.1V435h8.7v-3.7h60v3.7h8.7v-35.5l3.1.1v-22.5c-6.9-11.1-20.8-17.8-34.3-19.6zm-15-7.2c-5.1-1.8-4.9-3.8-4.8-5 .1-.8.4-1.4 1-1.9 2.5-2 20.7-2 23.2 0 .6.5 1 1.1 1 1.9.1 1.2.2 3.1-4.8 5-2.5.9-3.7 3.2-3.5 6.9-1.4-.1-2.9-.2-4.3-.2h-.4c-1.3 0-2.6.1-3.9.2.1-3.7-1-6-3.5-6.9zm16.5 38.4h-.8v17.8l-8.3 3.1-7.7-3.1.1-17.8h-.8v-3.6h17.6v3.6z" class="st0"/><polygon points="-155.1,398.3 -154.5,398.3 -151.2,403.1 -148.5,403.1 -152.2,397.8 -153.1,397.2 -152.3,396.5 -149,391.8 -151.5,391.8 -154.6,396.6 -155.1,396.8 -155.1,391.8 -157.3,391.8 -157.3,403.1 -155.1,403.1" class="st0"/></svg>
