<svg id="Layer_2" xmlns="http://www.w3.org/2000/svg" viewBox="-230 322 150 150"><style>.st0{fill:#1a1b1e;}</style><path class="st0" d="M-99 407.1c0-.2.1-.4.1-.5.1-.2.1-.5.1-.7.2-1.3.3-2.5.3-3.7 0-.2-.1-.4-.1-.6.8-.1 1.5-.5 2.1-.9-.6-1.2-1.9-2.2-3.5-2.6l-.1-.1c1-.7 1.7-1.6 2-2.6-1.2-.7-2.9-.8-4.5-.2-.5-.4-1.1-.7-1.7-1 1.2-1 1.8-2.3 1.9-3.7-1.2-.5-2.8-.4-4.1.3 1-1.6 1.6-3.6 1.6-5.7 0-1.2-.2-2.3-.5-3.3 1-.6 1.8-1.5 2.2-2.4-1-.6-2.3-.9-3.7-.7-.7-1-1.6-1.8-2.6-2.5-.2-.1-.4-.3-.6-.4-.3-.2-.6-.3-.9-.5.8-1.4.9-3.1.3-4.5-1.7-.1-3.4.6-4.5 2.1-.1.1-.1.2-.2.3.2-.7.2-1.5.2-2.3 0-.7-.1-1.4-.2-2.1 1.4-.6 2.4-1.7 2.9-2.8-.9-.6-2.1-.9-3.4-.7.3-1 .3-2.1 0-3.1-1-.1-2 0-2.9.4-.9-.8-2-1.4-3.2-1.7.7-1.1 1-2.3.8-3.3-1.4-.1-3 .6-4.3 1.9-.3.3-.5.6-.7.9.2-1.3-.1-2.6-.8-3.6-1.3.4-2.4 1.3-3.1 2.7-.1-1.3-.5-2.6-1.2-3.7.6-1.3.6-2.7 0-4-1.2-.1-2.4.3-3.3 1-.9-.4-1.9-.7-3-.7-1 0-2 .2-2.9.7.2-.1.3-.3.5-.5 1.2-1.3 1.6-3.2 1.2-4.8-1.7-.3-3.5.2-4.7 1.5-.2.2-.3.4-.5.6-.1-.1-.3-.2-.5-.3 0-.1.1-.2.1-.3.6-1.7.5-3.5-.3-4.7-1.3.5-2.6 1.7-3.2 3.4 0 .1-.1.2-.1.3h-.6c0-1.3-.5-2.5-1.3-3.4-1.6.4-3 1.7-3.6 3.4-.2.7-.3 1.3-.2 2l-.3.3c-.3-.3-.6-.5-.9-.8.2-.9.3-1.8 0-2.8-.3-1-.9-1.8-1.7-2.4-.6-.6-1.4-1.2-1.9-1-.4.2-.8.8-.9 1.5-.4 1-.5 2.1-.2 3.2-2.9.1-5.3 2-6.4 4.6v-.2c-.3-1.8-1.4-3.2-3-3.9-1.1.9-1.8 2.3-1.8 3.8-.1 0-.3 0-.4.1-.8-1.4-2.2-2.3-3.6-2.6-.6 1.2-.7 2.8-.1 4.3-1.3 1.1-2.2 2.7-2.5 4.5l-.3-.3c-1.4-1.2-3-1.7-4.4-1.5-.1 1.4.6 3 2 4.2.1.1.3.2.4.3-1-.4-2.2-.7-3.4-.7-1.2 0-2.4.3-3.5.7-1-1.4-2.5-2.2-4-2.2-.5 1.4-.3 3.1.6 4.6-.2 0-.4.1-.6.2-1.7.6-3 1.7-3.6 3.1.6.4 1.4.6 2.2.7-.3 1-.4.7-.4 1.9 0 .3-.8.7-.8.9-1.1-.6-2.6-.5-3.6-.3-.1 1.2.1 3.1 1.1 4.2-2.5.3-3.3 2-4.8 4l-.3-.3c-1.4-1.2-3-1.7-4.4-1.5-.1 1.4.6 3 2 4.2.3.3.7.6 1.1.8-.3 1.1-.5 2.2-.5 3.5v.2c0 .3 0 .6.1.9h-.1c0 .3.1.5.2.8-1.3-.3-2.6-.2-3.6.3.1.9.6 1.8 1.2 2.5-1.1.2-2.1.7-2.9 1.4.5 1.6 1.8 2.9 3.6 3.4.1 0 .2 0 .4.1-1.4 1-2.6 2.2-3.2 3.6-1.3 0-2.5.3-3.4 1 .4.9 1.2 1.7 2.3 2.2-.1.2-.1.3-.2.5-.9.3-1.6.7-2.2 1.2-.5.4-.8.9-1.1 1.3-.1.2-.2.3-.2.5.9.6 2 .8 3.2.7.1 2.3.9 4.8 2.3 6.5-.8.6-1.4 1.3-1.7 2.1 1.2.8 2.9 1 4.7.4.3-.1.5-.2.8-.3.2 0 .3.1.5.1.1 1.4.7 2.7 1.6 3.5.9-.5 1.6-1.3 2.1-2.4.9 2.9 2.9 5.1 5.5 6.2-.5.9-.8 1.9-.8 3 1.6.7 3.4.6 4.9-.5.6-.4 1.1-1 1.5-1.7.1 1.5.7 2.8 1.6 3.6 1.3-.7 2.2-2.1 2.5-3.8.7 1.5 1.7 2.7 2.9 3.7v.1c-.5 1.7-.1 3.5 1.1 4.8 1.5-.4 2.8-1.5 3.4-3h.4c.6 1.4 1.7 2.4 3.1 2.9 1-1 1.6-2.4 1.5-3.9 1-.5 1.9-1.2 2.6-2.1 1 1.5 2.7 2.3 4.4 2.3.7-1.4.7-3 0-4.4.2.1.4.1.6.2 3.5 7.2.1 15-1.3 17.7-6.3 2.1-10.5 5.3-10.5 5.3h41.2s-4-3.1-10.2-5.2c-3.1-3.7-2.3-10.9-2.3-10.9-.3-3.1 1.8-5.6 3.6-7.2-.5 1.6-.4 3.3.3 4.5 1-.4 2-1.2 2.7-2.3 0 .1.1.1.1.2-.1.2-.1.5-.1.8-.2 1.8.4 3.5 1.6 4.5 1-.6 1.8-1.6 2.3-2.8.9.3 1.8.5 2.8.5 1.1 0 2.1-.2 3.1-.6.6.9 1.5 1.6 2.6 2 1.2-1.2 1.8-3 1.4-4.7 0-.1 0-.1-.1-.2.8-1 1.4-2.1 1.8-3.4v1.2c.2 1.8 1.1 3.3 2.2 4.1 1-1 1.6-2.6 1.4-4.3.7.2 1.5.3 2.3.3h.1c.1 1.7.8 3.1 2 4 1.3-.9 2.1-2.4 2.2-4.3v-.8c1.5-.8 2.7-2 3.6-3.5 1.3 1.1 2.9 1.5 4.3 1.3.2-1.5-.3-3.2-1.6-4.5-.2-.2-.5-.4-.7-.6 2.8.3 4.9-.5 6.4-1.7 1.3.7 2.9.7 4.3.2.1-1.5-.5-3.1-1.7-4.2-.1-.5.1-.9.2-1.3zm-85.7-24.6c0-.1 0-.1 0 0-.3-.7-1-.9-1-.9-.2-.1-.4-.1-.6-.2-.8-.4-1.3-.9-1.5-1.2.6-.3 1.1-1 1.3-1.9v.2l.4-1.1c.1-2.2-1.5-2.7-1.5-2.7l.3-.2c-1.8-.9-2.8.4-2.8.4-2.1 1.4-.3 3.9-.2 4 .2.6.6 1 1 1.3-.2.3-.7.9-1.6 1.3-.2.1-.3.1-.5.2 0 0-.6.2-.9.8-.7-1.1-1.1-2.5-1.1-4 0-3.5 2.2-6.4 5-6.4 2.7 0 5 2.9 5 6.4-.2 1.5-.6 2.9-1.3 4zm2.3 21.9zm7.8 0c-.4-.6-1-.8-1-.8v-2.2c.4-3.8-1.5-4.6-1.5-4.6-1.6-1.5-2.8 0-2.8 0s-1.9.8-1.5 4.6v2.3s-.6.2-.9.8c-.7-1.1-1.1-2.5-1.1-4 0-3.5 2.2-6.4 5-6.4 2.7 0 5 2.9 5 6.4-.1 1.4-.5 2.8-1.2 3.9zm2.3-21.3zm7.7 0c-.3-.7-1-.9-1-.9h-.1c-1.2-.3-1.8-1-2-1.4.4-.2.8-.6 1-1.1v.3s1.9-1.1 1.1-3.1c-.3-.8-.8-2.2-2.9-1.8-2.1-.4-2.6 1-2.9 1.8-.8 2 1.1 3.1 1.1 3.1v-.4c.2.5.5.9.9 1.1-.2.3-.7.9-1.6 1.3-.2.1-.3.1-.5.2 0 0-.6.2-.9.8-.7-1.1-1.1-2.5-1.1-4 0-3.5 2.2-6.4 5-6.4 2.7 0 5 2.9 5 6.4 0 1.6-.4 3-1.1 4.1zm7 31.3c-.1 0-.1-.1 0 0-.1-.1-.1 0 0 0zm7.7-.1c-.1 0-.1 0 0 0-.1 0-.1 0 0 0-.4-.6-1-.8-1-.8-1.2-.3-1.8-1.1-2.1-1.4.1 0 .1-.1.2-.1l.9-.2c2.6-.8.5-3.8.5-3.8-.9-2.7-3.4-1.7-3.4-1.7-1 .2-1.5 1.9-1.5 1.9-2.2 4.1 1.5 3.8 1.5 3.8-.6-.3-.3-.2.2.1-.2.3-.7.9-1.6 1.3-.2.1-.3.1-.5.2 0 0-.6.2-.9.8-.7-1.1-1.1-2.5-1.1-4 0-3.5 2.2-6.4 5-6.4 2.7 0 5 2.9 5 6.4-.2 1.4-.6 2.8-1.2 3.9zm6.8-31.9zm7.7.1c0-.1 0-.1 0 0-.3-.7-1-.9-1-.9-1-.3-1.6-.8-1.9-1.2.1-.2.2-.3.2-.5.2-.2.4-.5.6-.8.3.1.5.2.7.2 0 0-.2-.2-.6-.5.2-.4.3-.9.3-1.4 0-1.6-.9-2.9-2.1-2.9-1.2 0-2.1 1.3-2.1 2.9 0 .5.1 1 .3 1.4-.3.3-.6.5-.6.5.2-.1.4-.2.7-.2.2.3.4.6.6.8 0 .1.1.3.1.4-.3.4-.9 1-2 1.3-.1 0-.1.1-.2.1-.1.1-.2.1-.3.2h-.1c-.1.1-.2.2-.3.4-.7-1.1-1.1-2.5-1.1-4 0-3.5 2.2-6.4 5-6.4 2.7 0 5 2.9 5 6.4 0 1.7-.5 3.1-1.2 4.2zm2.4 22s0-.1-.1-.1c.1 0 .1.1.1.1zm7.7-.1c-.3-.7-1-.9-1-.9-.8-.2-1.3-.6-1.7-1 .5-.6.7-1.3.7-1.3s0-.1-.1-.1c.1-.1.1-.3.2-.4v.2l.6-1.8c.2-2.4-1.9-2.9-1.9-2.9l.3-.5c-1.7 0-2 1-2 1-2.6 1-.5 4.6-.5 4.6s.2.6.6 1.1c-.2.3-.6.6-1 .8-.1.1-.2.1-.3.2-.1.1-.3.1-.5.2 0 0-.6.2-.9.8-.7-1.1-1.1-2.5-1.1-4 0-3.5 2.2-6.4 5-6.4 2.7 0 5 2.9 5 6.4-.3 1.5-.7 2.9-1.4 4zm-5.5-3.2c0 .1 0 .1 0 0-.1 0-.1-.1-.2-.3.1.2.2.2.2.3zm7.9-18c0-.1-.1-.1 0 0 0-.1 0-.1 0 0zm7.7-.1c-.4-.6-1-.9-1-.9-.3-1.1-1.3-2.1-1.3-2.1l-.3.3c.5-.5.9-1.4.9-2.4 1-3.7-2.3-3.4-2.3-3.4-2.9 0-2 3.6-2 3.6 0-.1 0-.2.1-.3v.2c0 1.2.8 2.4.5 2 0 0-1 1-1.3 2.1h-.1s-.6.2-.9.8c-.7-1.1-1.1-2.5-1.1-4 0-3.5 2.2-6.4 5-6.4 2.7 0 5 2.9 5 6.4-.1 1.6-.5 3-1.2 4.1z"/></svg>
