<svg xmlns="http://www.w3.org/2000/svg" width="150" height="150" viewBox="0 0 150 150"><linearGradient id="a" gradientUnits="userSpaceOnUse" x1="74.999" y1="19.785" x2="74.999" y2="159.222"><stop offset=".357" stop-color="#FDD134"/><stop offset=".988" stop-color="#F9A21B"/></linearGradient><circle fill="url(#a)" cx="75" cy="75" r="75"/><linearGradient id="b" gradientUnits="userSpaceOnUse" x1="75.453" y1="183.773" x2="75.453" y2="76.641"><stop offset="0" stop-color="#D43E2E"/><stop offset="1" stop-color="#F27147"/></linearGradient><path fill="url(#b)" d="M135.12 117.693c-21.933-13.033-41.878-16.568-41.878-16.568l-15.575 1.907v1.327l-17.323-3.235s-22.626 4.952-44.558 17.985l8.25 10 14.75 11 19.137 7.548 18.446 1.952 20.25-3.417 16.767-8 14.7-11.68 7.032-8.82z"/><radialGradient id="c" cx="25.076" cy="131.594" r="35.525" gradientUnits="userSpaceOnUse"><stop offset="0" stop-color="#D54C2F"/><stop offset="1" stop-color="#F05C3D" stop-opacity="0"/></radialGradient><path fill="url(#c)" d="M15.806 119.157s12.848-7.193 16.424-8.305c0 0 26.223-7.867 15.02 33.295-.002 0-19.023-5.004-31.444-24.99z"/><radialGradient id="d" cx="964.967" cy="130.011" r="35.525" gradientTransform="matrix(-1 0 0 1 1090.615 0)" gradientUnits="userSpaceOnUse"><stop offset="0" stop-color="#D54C2F"/><stop offset="1" stop-color="#F05C3D" stop-opacity="0"/></radialGradient><path fill="url(#d)" d="M134.92 117.574s-12.85-7.193-16.425-8.305c0 0-26.223-7.868-15.02 33.294.002 0 19.022-5.004 31.444-24.99z"/><linearGradient id="e" gradientUnits="userSpaceOnUse" x1="91.831" y1="124.559" x2="102.127" y2="121.845"><stop offset="0" stop-color="#D43E2E"/><stop offset="1" stop-color="#F05C3D"/></linearGradient><path fill="url(#e)" d="M99.525 102.485c0 .317-2.544 3.496-7.63 4.53l11.724 36.095-10.418 3.667-7.82-43.1 11.998-1.988 2.145.795z"/><linearGradient id="f" gradientUnits="userSpaceOnUse" x1="1157.822" y1="124.622" x2="1167.935" y2="121.957" gradientTransform="matrix(-1 0 0 1 1215.836 0)"><stop offset="0" stop-color="#D43E2E"/><stop offset="1" stop-color="#F05C3D"/></linearGradient><path fill="url(#f)" d="M50.577 102.485c0 .317 2.543 3.496 7.628 4.53L45.952 143.11l10.584 3.833 8.185-43.267-11.997-1.987-2.146.795z"/><linearGradient id="g" gradientUnits="userSpaceOnUse" x1="76.54" y1="111.782" x2="76.54" y2="123.754"><stop offset="0" stop-color="#D43E2E"/><stop offset="1" stop-color="#F05C3D"/></linearGradient><path fill="url(#g)" d="M99.92 111.343c-1.368 0-2.51.93-2.86 2.187H50.18v2.066h47.057c.48 1.007 1.496 1.707 2.685 1.707 1.646 0 2.98-1.335 2.98-2.98s-1.336-2.98-2.98-2.98z"/><linearGradient id="h" gradientUnits="userSpaceOnUse" x1="50.179" y1="113.528" x2="102.9" y2="113.528"><stop offset=".003" stop-color="#FFEA00"/><stop offset="1" stop-color="#FDD134"/></linearGradient><path fill="url(#h)" d="M99.92 110.55c-1.368 0-2.51.927-2.86 2.186H50.18v2.066h47.057c.48 1.006 1.496 1.706 2.685 1.706 1.646 0 2.98-1.334 2.98-2.98s-1.336-2.98-2.98-2.98z"/><linearGradient id="i" gradientUnits="userSpaceOnUse" x1="76.54" y1="120.841" x2="76.54" y2="132.813"><stop offset="0" stop-color="#D43E2E"/><stop offset="1" stop-color="#F05C3D"/></linearGradient><path fill="url(#i)" d="M99.92 120.4c-1.368 0-2.51.93-2.86 2.188H50.18v2.066h47.057c.48 1.007 1.496 1.707 2.685 1.707 1.646 0 2.98-1.333 2.98-2.978s-1.336-2.98-2.98-2.98z"/><linearGradient id="j" gradientUnits="userSpaceOnUse" x1="50.179" y1="122.588" x2="102.9" y2="122.588"><stop offset=".003" stop-color="#FFEA00"/><stop offset="1" stop-color="#FDD134"/></linearGradient><path fill="url(#j)" d="M99.92 119.607c-1.368 0-2.51.93-2.86 2.187H50.18v2.066h47.057c.48 1.007 1.496 1.707 2.685 1.707 1.646 0 2.98-1.335 2.98-2.98s-1.336-2.98-2.98-2.98z"/><path fill="#E96524" d="M93.724 112.705l.655 2.116-2.728-.014-.88-2.086M96.688 121.794l.567 2.07-3.19.016-.55-2.086M56.37 112.705l-.655 2.116 2.726-.014.88-2.086M53.406 121.794l-.566 2.07 3.188.016.55-2.086"/><radialGradient id="k" cx="75.027" cy="77.056" r="53.97" gradientUnits="userSpaceOnUse"><stop offset="0" stop-color="#FBD9D2"/><stop offset=".877" stop-color="#F5D1A1"/><stop offset="1" stop-color="#F1A636"/></radialGradient><path fill="url(#k)" d="M94.07 92.75c-2.044 13.272-8.468 15.098-18.913 15.098-10.444 0-16.42-1.902-18.912-15.098-3.813-20.184 8.468-30.673 18.912-30.673 10.446 0 21.775 12.078 18.913 30.673z"/><path fill="#D65A27" d="M95.512 78.646s9.85 10.937 7.107 24.882l-12.592-3.903s5.262-10.117 2.512-18.767l2.972-2.212zM54.65 78.646S44.7 90.528 48.12 104.86l12-4.5s-5.25-10.853-2.5-19.502l-2.97-2.212z"/><path fill="#BC4C27" d="M93.406 83.017s6.675 8.66 3.178 18.673l-6.316-1.55s2.113-6.5 2.582-8.58c.556-2.465.556-8.543.556-8.543zM56.793 83.017s-6.675 8.66-3.18 18.673l6.317-1.55s-2.112-6.5-2.582-8.58c-.555-2.465-.555-8.543-.555-8.543z"/><linearGradient id="l" gradientUnits="userSpaceOnUse" x1="74.994" y1="101.39" x2="74.994" y2="168.224"><stop offset="0" stop-color="#F69328"/><stop offset=".363" stop-color="#F37D29"/><stop offset="1" stop-color="#F16A23"/></linearGradient><path fill="url(#l)" d="M99.785 144.527l-10.732-40.215L76.1 98.75l-.636.952-1.05-.317-1.31.596h.953L61 104.313 50.203 144.61l9.167 2.75 14.784 2.25v.083l.358-.042.357.043v-.084l16.082-1.667"/><radialGradient id="m" cx="85.25" cy="84.041" r="6.497" gradientUnits="userSpaceOnUse"><stop offset=".134" stop-color="#FFF"/><stop offset=".706" stop-color="#C9EAFB"/></radialGradient><path fill="url(#m)" d="M85.25 80.515c-2.396 0-4.452 1.454-5.34 3.526.888 2.073 2.943 3.526 5.34 3.526 2.398 0 4.452-1.453 5.34-3.525-.888-2.07-2.942-3.525-5.34-3.525z"/><radialGradient id="n" cx="85.371" cy="84.434" r="2.021" gradientUnits="userSpaceOnUse"><stop offset=".002" stop-color="#8F9098"/><stop offset=".774" stop-color="#555759"/></radialGradient><circle fill="url(#n)" cx="85.372" cy="84.433" r="2.021"/><linearGradient id="o" gradientUnits="userSpaceOnUse" x1="85.25" y1="75.266" x2="85.25" y2="83.752"><stop offset=".114" stop-color="#F2722A"/><stop offset=".976" stop-color="#F7A58E"/></linearGradient><path fill="url(#o)" d="M90.552 84.11c.012-.023.026-.046.037-.07-.888-2.07-2.94-3.525-5.34-3.525-2.396 0-4.452 1.454-5.34 3.526.012.024.027.047.04.07H90.55z"/><radialGradient id="p" cx="85.46" cy="69.826" r="15.821" gradientUnits="userSpaceOnUse"><stop offset=".007" stop-color="#FDDFC0"/><stop offset=".925" stop-color="#DF5D34"/></radialGradient><path fill="url(#p)" d="M80.105 84.068s2.026-2.413 5.304-2.413c0 0 3.386.122 5.18 2.386l.095-4.173-8.643.148s-2.563 3.07-1.937 4.053z"/><linearGradient id="q" gradientUnits="userSpaceOnUse" x1="75.03" y1="92.878" x2="75.03" y2="111.593"><stop offset="0" stop-color="#F69328"/><stop offset=".363" stop-color="#F37D29"/><stop offset="1" stop-color="#D71922"/></linearGradient><path fill="url(#q)" d="M87.685 98.71c-6.696-5.75-10.508-2.744-12.5-1.55-1.99-1.194-5.647-4.464-12.372 1.39 0 0-2.672 8.465-2.587 8.544.084.08 3.408.118 5.452-.147 0 0 7.35-.075 9.507-4.62 2.16 4.545 9.507 4.62 9.507 4.62 1.914.25 5.19.08 5.145.173-.046.092-2.152-8.41-2.152-8.41z"/><linearGradient id="r" gradientUnits="userSpaceOnUse" x1="75.185" y1="90.192" x2="75.185" y2="105.406"><stop offset="0" stop-color="#F69328"/><stop offset=".363" stop-color="#F37D29"/><stop offset="1" stop-color="#F16A23"/></linearGradient><path fill="url(#r)" d="M91.496 95.88c-6.696-5.747-14.32-2.616-16.312-1.422-1.99-1.194-9.586-4.432-16.31 1.423 0 0-6.528 4.32-9.927 1.562 0 0 3.312 8.547 16.73 6.803 0 0 7.348-.075 9.506-4.62 2.16 4.545 9.507 4.62 9.507 4.62 13.42 1.744 16.73-6.803 16.73-6.803-3.397 2.757-9.924-1.56-9.924-1.56z"/><linearGradient id="s" gradientUnits="userSpaceOnUse" x1="102.306" y1="99.152" x2="88" y2="99.152"><stop offset="0" stop-color="#FFD41C"/><stop offset="1" stop-color="#F37D29" stop-opacity="0"/></linearGradient><path fill="url(#s)" d="M91.496 95.88c-1.02-.876-2.065-1.526-3.106-2.028.146 3.544.53 7.07.88 10.602 9.62-.47 12.153-7.012 12.153-7.012-3.4 2.757-9.927-1.56-9.927-1.56z"/><linearGradient id="t" gradientUnits="userSpaceOnUse" x1="1169.367" y1="99.153" x2="1155.062" y2="99.153" gradientTransform="matrix(-1 0 0 1 1217.48 0)"><stop offset="0" stop-color="#FFD41C"/><stop offset="1" stop-color="#F37D29" stop-opacity="0"/></linearGradient><path fill="url(#t)" d="M58.922 95.88c1.022-.876 2.065-1.526 3.106-2.028-.146 3.544-.528 7.07-.88 10.602-9.62-.47-12.153-7.012-12.153-7.012 3.4 2.757 9.927-1.56 9.927-1.56z"/><linearGradient id="u" gradientUnits="userSpaceOnUse" x1="75.207" y1="89.224" x2="75.367" y2="98.759"><stop offset="0" stop-color="#F69328"/><stop offset=".363" stop-color="#F37D29"/><stop offset="1" stop-color="#D71922"/></linearGradient><path fill="url(#u)" d="M81.608 92.76c0-2.357-2.896-1.976-2.896-1.976.55-2.207-1.76-6.817-3.402-6.817-1.955 0-4.07 4.498-3.493 6.817 0 0-2.662-.37-2.894 1.975 0 0-.132 3.904 6.126 3.904 0 0 6.558.417 6.558-3.905z"/><linearGradient id="v" gradientUnits="userSpaceOnUse" x1="75.345" y1="109.237" x2="75.345" y2="90.154"><stop offset=".114" stop-color="#F2722A"/><stop offset=".976" stop-color="#F7A58E"/></linearGradient><path fill="url(#v)" d="M81.688 91.27c0-2.356-2.896-1.975-2.896-1.975.55-2.207-1.76-6.817-3.402-6.817-1.955 0-4.07 4.497-3.493 6.817 0 0-2.662-.37-2.894 1.974 0 0-.132 3.904 6.126 3.904 0 0 6.558.417 6.558-3.905z"/><linearGradient id="w" gradientUnits="userSpaceOnUse" x1="75.345" y1="102.255" x2="75.345" y2="85.899"><stop offset=".42" stop-color="#F0562A"/><stop offset=".976" stop-color="#F7A58E" stop-opacity="0"/></linearGradient><path fill="url(#w)" d="M79.506 89.28c-.616.14-1.248.24-1.897.297-1.6.137-3.708.106-5.714-.292v.01s-2.66-.37-2.893 1.974c0 0-.132 3.904 6.126 3.904 0 0 6.558.417 6.558-3.905 0-1.595-1.326-1.935-2.182-1.99z"/><radialGradient id="x" cx="65.915" cy="18.014" r="68.167" gradientUnits="userSpaceOnUse"><stop offset=".143" stop-color="#8F9098"/><stop offset=".801" stop-color="#555759"/><stop offset="1" stop-color="#393C3E"/></radialGradient><path fill="url(#x)" d="M99.246 46.776l4.008-10.96-3.383.917c-.884-6.85-6.07-12.114-12.36-12.114H62.7c-6.3 0-11.498 5.286-12.363 12.152l-3.536-.955 4.166 11-3.323-.897 4.264 10.937-3.083-.834 4.107 10.864.004.01-2.847-.77 3.882 10.858.004-.057c.628 2.384 2.208 3.44 3.698 3.93 4.773-2.3 10.657-2.432 17.26-2.432 6.603 0 12.613.47 17.608 2.43 1.67-.568 3.18-1.607 3.74-4.038l3.69-10.69-2.69.724.006-.04 3.945-10.79-2.936.793 4.118-10.895-3.166.856z"/><path fill="#424243" d="M55.993 79.9s1.375-5.624 8.5-5.624c0 0 5-.5 8.375 2.25l3.875-.125s4.125-2.374 8.375-2.124c0 0 7.125.125 9.5 5l-.875 1H56.618l-.625-.375z"/><linearGradient id="y" gradientUnits="userSpaceOnUse" x1="25.067" y1="41.664" x2="38.734" y2="97.664"><stop offset=".086" stop-color="#F7972A"/><stop offset="1" stop-color="#F05A2A"/></linearGradient><path fill="url(#y)" d="M39.266 59.783h-15.29v.796h1.456v22.634h3.577V60.58h5.278v22.6h3.578v-22.6h1.4"/><linearGradient id="z" gradientUnits="userSpaceOnUse" x1="113.907" y1="109.56" x2="106.4" y2="159.857"><stop offset=".363" stop-color="#D43E2E"/><stop offset="1" stop-color="#F05C3D"/></linearGradient><path fill="url(#z)" d="M114.096 107.485c-.055.164-5.824 19.156-5.884 33.035l1.907.007c.058-13.567 5.73-32.276 5.784-32.437l-1.808-.605z"/><linearGradient id="A" gradientUnits="userSpaceOnUse" x1="40.979" y1="111.467" x2="33.975" y2="158.391"><stop offset=".363" stop-color="#D43E2E"/><stop offset="1" stop-color="#F05C3D"/></linearGradient><path fill="url(#A)" d="M35.123 109.507c.055.16 5.613 18.043 5.672 31.61l1.907-.007c-.06-13.88-5.716-32.045-5.77-32.21l-1.81.607z"/><linearGradient id="B" gradientUnits="userSpaceOnUse" x1="106.133" y1="21.881" x2="119.799" y2="77.879"><stop offset=".086" stop-color="#F7972A"/><stop offset="1" stop-color="#F05A2A"/></linearGradient><path fill="url(#B)" d="M124.562 82.384v-7.396s-.053-3.673-4.024-4.99c1.604-.622 3.572-1.728 3.572-3.98V60.61h1.45v-.792h-6.99v.792h1.45v5.408s-.08 3.548-3.858 3.548v-8.988h1.46v-.794h-6.8v.794h1.48V82.42h-1.367v.796h6.62v-.796h-1.393V70.683c.263.01.885-.03 1.494.068.755.126 3.104 1.558 3.104 4.237V83.2l5.234-.022v-.794h-1.432z"/><path fill="#FFF16E" d="M75 0C33.578 0 0 33.58 0 75c0 41.422 33.578 75 75 75 41.42 0 75-33.578 75-75 0-41.42-33.58-75-75-75zm0 148.542c-40.617 0-73.542-32.925-73.542-73.542C1.458 34.384 34.383 1.458 75 1.458c40.616 0 73.542 32.926 73.542 73.542 0 40.617-32.926 73.542-73.542 73.542z"/><linearGradient id="C" gradientUnits="userSpaceOnUse" x1="88.574" y1="75.578" x2="83.091" y2="87.676"><stop offset=".086" stop-color="#F7972A"/><stop offset="1" stop-color="#F05A2A"/></linearGradient><path fill="url(#C)" d="M94.733 81.845c-.095-.23-2.413-5.643-8.996-5.643-.143 0-.28.018-.417.04-.136-.022-.274-.04-.417-.04-6.583 0-8.9 5.412-8.997 5.643-.503 1.216.074 2.61 1.29 3.115.3.124.607.183.912.183.936 0 1.823-.555 2.203-1.473.012-.027 1.16-2.7 4.593-2.7.143 0 .28-.018.417-.042.136.024.274.042.417.042 3.434 0 4.58 2.673 4.592 2.7.38.918 1.267 1.473 2.202 1.473.305 0 .613-.06.912-.183 1.216-.504 1.793-1.9 1.29-3.115z"/><radialGradient id="D" cx="1131.932" cy="84.041" r="6.497" gradientTransform="matrix(-1 0 0 1 1197.377 0)" gradientUnits="userSpaceOnUse"><stop offset=".134" stop-color="#FFF"/><stop offset=".706" stop-color="#C9EAFB"/></radialGradient><path fill="url(#D)" d="M65.445 80.515c2.397 0 4.453 1.454 5.34 3.526-.887 2.073-2.942 3.526-5.34 3.526s-4.452-1.453-5.34-3.525c.888-2.07 2.943-3.525 5.34-3.525z"/><radialGradient id="E" cx="1132.053" cy="84.434" r="2.021" gradientTransform="matrix(-1 0 0 1 1197.377 0)" gradientUnits="userSpaceOnUse"><stop offset=".002" stop-color="#8F9098"/><stop offset=".774" stop-color="#555759"/></radialGradient><circle fill="url(#E)" cx="65.324" cy="84.433" r="2.021"/><linearGradient id="F" gradientUnits="userSpaceOnUse" x1="1131.932" y1="75.265" x2="1131.932" y2="83.751" gradientTransform="matrix(-1 0 0 1 1197.377 0)"><stop offset=".114" stop-color="#F2722A"/><stop offset=".976" stop-color="#F7A58E"/></linearGradient><path fill="url(#F)" d="M60.144 84.11c-.01-.023-.025-.046-.037-.07.887-2.07 2.94-3.525 5.34-3.525s4.452 1.454 5.34 3.526l-.04.07H60.145z"/><radialGradient id="G" cx="1132.142" cy="69.826" r="15.821" gradientTransform="matrix(-1 0 0 1 1197.377 0)" gradientUnits="userSpaceOnUse"><stop offset=".007" stop-color="#FDDFC0"/><stop offset=".925" stop-color="#DF5D34"/></radialGradient><path fill="url(#G)" d="M70.59 84.068s-2.025-2.413-5.304-2.413c0 0-3.386.122-5.18 2.386l-.095-4.173 8.643.148s2.563 3.07 1.938 4.053z"/><linearGradient id="H" gradientUnits="userSpaceOnUse" x1="1135.254" y1="75.578" x2="1129.771" y2="87.676" gradientTransform="matrix(-1 0 0 1 1197.377 0)"><stop offset=".086" stop-color="#F7972A"/><stop offset="1" stop-color="#F05A2A"/></linearGradient><path fill="url(#H)" d="M55.962 81.845c.095-.23 2.414-5.643 8.996-5.643.143 0 .28.018.418.04.136-.022.274-.04.417-.04 6.583 0 8.9 5.412 8.996 5.643.503 1.216-.074 2.61-1.29 3.115-.3.124-.607.183-.912.183-.936 0-1.823-.555-2.203-1.473-.012-.027-1.158-2.7-4.592-2.7-.143 0-.28-.018-.417-.042-.137.024-.275.042-.418.042-3.433 0-4.58 2.673-4.592 2.7-.38.918-1.267 1.473-2.203 1.473-.305 0-.612-.06-.91-.183-1.218-.504-1.795-1.9-1.29-3.115z"/><linearGradient id="I" gradientUnits="userSpaceOnUse" x1="87.023" y1="88.838" x2="88.586" y2="98.024"><stop offset=".175" stop-color="#F7A58E" stop-opacity="0"/><stop offset=".984" stop-color="#F0562A"/></linearGradient><path fill="url(#I)" d="M93.118 88.65s-.432 4.46-1.622 7.23l-9.888-3.122s.572-2.357-.553-2.982c0 0 9 1.25 12.063-1.125z"/><linearGradient id="J" gradientUnits="userSpaceOnUse" x1="1136.361" y1="88.814" x2="1137.981" y2="98.339" gradientTransform="matrix(-1 0 0 1 1199.938 0)"><stop offset=".175" stop-color="#F7A58E" stop-opacity="0"/><stop offset=".984" stop-color="#F0562A"/></linearGradient><path fill="url(#J)" d="M57.056 88.65s.02 3.752 1.605 7.42l10.584-3.293s-.417-2.333.708-2.958c0 0-9.834 1.206-12.896-1.17z"/><path fill="#FFF" d="M97.06 112.735s.56-2.082 2.86-2.187c0 0 2.656-.062 2.97 2.708 0 0-.96-1.98-3.084-1.98 0 0-1.97.105-2.745 1.46zM97.06 121.735s.56-2.082 2.86-2.187c0 0 2.656-.062 2.97 2.708 0 0-.96-1.98-3.084-1.98 0 0-1.97.105-2.745 1.46z"/><linearGradient id="K" gradientUnits="userSpaceOnUse" x1="60.451" y1="46.86" x2="60.451" y2="27.343"><stop offset="0" stop-color="#555759" stop-opacity="0"/><stop offset="1" stop-color="#393C3E"/></linearGradient><path fill="url(#K)" d="M54.118 46.527l6.5-10.834 6.166 11"/><linearGradient id="L" gradientUnits="userSpaceOnUse" x1="75.786" y1="46.86" x2="75.786" y2="27.343"><stop offset="0" stop-color="#555759" stop-opacity="0"/><stop offset="1" stop-color="#393C3E"/></linearGradient><path fill="url(#L)" d="M69.452 46.527l6.5-10.834 6.166 11"/><linearGradient id="M" gradientUnits="userSpaceOnUse" x1="91.119" y1="46.86" x2="91.119" y2="27.343"><stop offset="0" stop-color="#555759" stop-opacity="0"/><stop offset="1" stop-color="#393C3E"/></linearGradient><path fill="url(#M)" d="M84.786 46.527l6.5-10.834 6.166 11"/><linearGradient id="N" gradientUnits="userSpaceOnUse" x1="83.353" y1="91.772" x2="68.226" y2="91.772"><stop offset=".114" stop-color="#F2722A" stop-opacity="0"/><stop offset=".729" stop-color="#FCD0AC"/></linearGradient><ellipse fill="url(#N)" cx="75.202" cy="91.772" rx="3.65" ry="1.746"/></svg>