<svg xmlns="http://www.w3.org/2000/svg" width="150" height="150" viewBox="0 0 150 150"><defs><mask id="a"><path fill="#fff" d="M0 0h150v150H0z"/><path fill="#9e9b9b" d="M99.63 110.27c-1.37 0-2.51.93-2.86 2.188H49.888v2.066h47.058c.48 1.006 1.496 1.706 2.685 1.706 1.647 0 2.98-1.334 2.98-2.98s-1.335-2.98-2.98-2.98zM99.63 119.33c-1.37 0-2.51.93-2.86 2.187H49.888v2.066h47.058c.48 1.007 1.496 1.707 2.685 1.707 1.647 0 2.98-1.335 2.98-2.98s-1.335-2.98-2.98-2.98zM93.78 92.473c-2.045 13.272-8.47 15.098-18.914 15.098s-16.42-1.9-18.912-15.097C52.14 72.29 64.422 61.8 74.866 61.8c10.446 0 21.775 12.078 18.913 30.673z"/><path fill="#fff" d="M95.22 78.368s9.85 10.937 7.108 24.882l-12.543-3.5S95 89.23 92.25 80.58l2.97-2.212zM54.358 78.368s-9.947 11.882-6.53 26.215l12.166-4.21S54.58 89.23 57.33 80.58l-2.972-2.212z"/><path fill="#9e9b9b" d="M99.868 145.666L88.803 104.37 75.85 98.805l-.636.953-1.05-.32-1.31.598h.953l-13.056 4.33-11.006 41.05 8.457 2.665 15.704 1.583v.084l.358-.042L90.702 148z"/><path fill="#fff" d="M91.205 98.187c-6.696-5.748-14.32-2.617-16.312-1.423-1.99-1.194-9.586-4.432-16.31 1.423 0 0-6.528 4.318-9.927 1.56 0 0 3.312 8.548 16.73 6.804 0 0 7.348-.074 9.506-4.62 2.16 4.546 9.507 4.62 9.507 4.62 13.42 1.745 16.73-6.802 16.73-6.802-3.398 2.757-9.925-1.56-9.925-1.56z"/><path fill="#9e9b9b" d="M91.205 96.312c-6.696-5.748-14.32-2.617-16.312-1.423-1.99-1.195-9.586-4.433-16.31 1.422 0 0-6.528 4.318-9.927 1.56 0 0 3.312 8.548 16.73 6.804 0 0 7.348-.075 9.506-4.62 2.16 4.545 9.507 4.62 9.507 4.62 13.42 1.744 16.73-6.803 16.73-6.803-3.398 2.757-9.925-1.56-9.925-1.56zM81.317 92.48c0-2.355-2.896-1.974-2.896-1.974.552-2.207-1.76-6.817-3.4-6.817-1.956 0-4.072 4.497-3.494 6.816 0 0-2.662-.37-2.894 1.975 0 0-.132 3.906 6.126 3.906 0 0 6.56.418 6.56-3.905zM84.96 80.237c-2.397 0-4.453 1.454-5.34 3.526.887 2.072 2.942 3.525 5.34 3.525 2.397 0 4.45-1.453 5.338-3.525-.887-2.072-2.94-3.526-5.34-3.526zM65.154 80.237c2.397 0 4.453 1.454 5.34 3.526-.887 2.072-2.942 3.525-5.34 3.525s-4.452-1.453-5.34-3.525c.888-2.072 2.943-3.526 5.34-3.526z"/><path fill="#fff" d="M55.702 79.624S57.077 74 64.202 74c0 0 5-.5 8.375 2.25l3.875-.126S80.577 73.75 84.827 74c0 0 7.125.124 9.5 5l-.875 1H56.326l-.624-.376z"/><path fill="#9e9b9b" d="M94.442 81.567c-.095-.23-2.413-5.643-8.996-5.643-.143 0-.28.018-.417.04-.137-.022-.275-.04-.418-.04-6.583 0-8.9 5.412-8.997 5.643-.503 1.216.074 2.61 1.29 3.115.3.124.607.183.912.183.936 0 1.823-.555 2.203-1.473.01-.027 1.158-2.7 4.592-2.7.143 0 .28-.018.417-.042.135.024.273.042.416.042 3.434 0 4.58 2.673 4.592 2.7.38.918 1.268 1.473 2.203 1.473.306 0 .614-.06.913-.183 1.216-.503 1.793-1.9 1.29-3.115zM55.67 81.567c.096-.23 2.415-5.643 8.997-5.643.143 0 .28.018.418.04.136-.022.274-.04.417-.04 6.583 0 8.9 5.412 8.996 5.643.504 1.216-.073 2.61-1.29 3.115-.3.124-.606.183-.91.183-.937 0-1.824-.555-2.204-1.473-.012-.027-1.158-2.7-4.592-2.7-.143 0-.28-.018-.417-.042-.137.024-.275.042-.418.042-3.433 0-4.58 2.673-4.592 2.7-.38.918-1.267 1.473-2.203 1.473-.305 0-.612-.06-.91-.183-1.218-.503-1.795-1.9-1.29-3.115z"/></mask><mask id="b"><path fill="#fff" d="M0 0h150v150H0z"/><path fill="#fff" d="M55.702 79.624S57.077 74 64.202 74c0 0 5-.5 8.375 2.25l3.875-.126S80.577 73.75 84.827 74c0 0 7.125.124 9.5 5l-.875 1H56.326l-.624-.376z"/><path d="M94.442 81.567c-.095-.23-2.413-5.643-8.996-5.643-.143 0-.28.018-.417.04-.137-.022-.275-.04-.418-.04-6.583 0-8.9 5.412-8.997 5.643-.503 1.216.074 2.61 1.29 3.115.3.124.607.183.912.183.936 0 1.823-.555 2.203-1.473.01-.027 1.158-2.7 4.592-2.7.143 0 .28-.018.417-.042.135.024.273.042.416.042 3.434 0 4.58 2.673 4.592 2.7.38.918 1.268 1.473 2.203 1.473.306 0 .614-.06.913-.183 1.216-.503 1.793-1.9 1.29-3.115zM55.67 81.567c.096-.23 2.415-5.643 8.997-5.643.143 0 .28.018.418.04.136-.022.274-.04.417-.04 6.583 0 8.9 5.412 8.996 5.643.504 1.216-.073 2.61-1.29 3.115-.3.124-.606.183-.91.183-.937 0-1.824-.555-2.204-1.473-.012-.027-1.158-2.7-4.592-2.7-.143 0-.28-.018-.417-.042-.137.024-.275.042-.418.042-3.433 0-4.58 2.673-4.592 2.7-.38.918-1.267 1.473-2.203 1.473-.305 0-.612-.06-.91-.183-1.218-.503-1.795-1.9-1.29-3.115z"/></mask><mask id="c"><path fill="#fff" d="M0 0h150v150H0z"/><path fill="#9e9b9b" d="M79.814 83.79s2.026-2.412 5.304-2.412c0 0 3.387.122 5.18 2.386l.096-4.174-8.643.148s-2.562 3.07-1.936 4.053zM70.3 83.79s-2.026-2.412-5.305-2.412c0 0-3.386.122-5.18 2.386l-.095-4.174 8.642.148s2.563 3.07 1.938 4.053z"/></mask></defs><g mask="url(#a)" fill="#1a1b1e"><path d="M136.202 118.167c-21.932-13.033-43.25-17.32-43.25-17.32l-15.576 1.908v1.327l-17.323-3.234s-23.56 5.432-45.49 18.465l4.312 5.25 2.22 2.5 2.4 2.23 6.442 5.488 8.308 5.512 7.317 3.552 4.182 1.573 7.888 1.964 18.446 1.953 20.54-2.958 3.163-.688 6.714-2.77 7.256-3.855 7.577-5.188 7.54-6.708 4.008-4.51 3.327-4.49z"/><circle cx="75" cy="96" r="25"/><path d="M95.22 78.368s9.85 10.937 7.108 24.882l-12.543-3.5S95 89.23 92.25 80.58l2.97-2.212zM54.358 78.368s-9.947 11.882-6.53 26.215l12.166-4.21S54.58 89.23 57.33 80.58l-2.972-2.212z"/><path d="M93.115 82.74s6.675 8.66 3.178 18.672l-6.316-1.55s2.113-6.5 2.582-8.58c.555-2.465.555-8.543.555-8.543zM56.502 82.74s-6.675 8.66-3.18 18.672l6.317-1.55s-2.113-6.5-2.583-8.58c-.555-2.465-.555-8.543-.555-8.543z"/></g><path fill="#1a1b1e" d="M98.955 46.5l4.008-10.96-3.383.916c-.885-6.85-6.072-12.114-12.36-12.114H62.41c-6.3 0-11.5 5.287-12.364 12.153l-3.536-.955 4.165 11-3.323-.897 4.264 10.937-3.083-.834L52.64 66.61l.003.01-2.847-.77 3.882 10.858.005-.057c.628 2.385 2.208 3.44 3.698 3.93 4.774-2.298 10.658-2.43 17.262-2.43 6.602 0 12.612.47 17.607 2.43 1.668-.57 3.178-1.608 3.738-4.04l3.692-10.69-2.69.725.006-.04 3.945-10.79-2.936.793 4.118-10.895-3.167.856z" mask="url(#b)"/><g mask="url(#c)" fill="#1a1b1e"><circle cx="85.081" cy="84.155" r="2.021"/><path d="M90.26 83.833c.013-.023.027-.046.038-.07-.887-2.07-2.94-3.525-5.34-3.525-2.395 0-4.45 1.454-5.338 3.526.01.023.026.046.038.07H90.26z"/><circle cx="65.033" cy="84.155" r="2.021"/><path d="M59.853 83.833c-.01-.023-.025-.046-.037-.07.887-2.07 2.94-3.525 5.34-3.525s4.452 1.454 5.34 3.526c-.013.023-.028.046-.04.07H59.854z"/></g><path fill="#1a1b1e" d="M81.396 90.99c0-2.354-2.896-1.973-2.896-1.973.55-2.207-1.76-6.817-3.402-6.817-1.955 0-4.07 4.497-3.493 6.817 0 0-2.662-.37-2.894 1.974 0 0-.13 3.906 6.127 3.906 0 0 6.56.417 6.56-3.905zM38.975 59.506h-15.29v.796h1.456v22.635h3.578V60.302h5.28v22.6h3.577v-22.6h1.4M124.27 82.106V74.71s-.052-3.673-4.023-4.99c1.604-.622 3.572-1.728 3.572-3.98v-5.408h1.45v-.792h-6.99v.792h1.45v5.408s-.08 3.548-3.86 3.548V60.3h1.462v-.794h-6.8v.794h1.478v21.844h-1.366v.796h6.62v-.796h-1.393v-11.74c.264.012.886-.03 1.495.07.755.124 3.104 1.556 3.104 4.235v8.212l5.233-.022v-.794h-1.432z"/></svg>