<svg xmlns="http://www.w3.org/2000/svg" width="150" height="150" viewBox="0 0 150 150"><defs><mask id="a"><path fill="#fff" d="M0 0h150v150H0z"/><path d="M94.35 83.18s-7.935-7.11-19.543-7.542v-.008c-.023 0-.046.003-.068.004-.024 0-.047-.003-.07-.004v.008c-11.608.43-19.543 7.542-19.543 7.542-2 1.828-2.087 2.46-1.896 3.275.145.604 1.312 1.793 1.312 1.793 7.595 7.95 18.767 8.355 20.13 8.373h.136c1.362-.017 12.534-.423 20.13-8.372 0 0 1.168-1.19 1.31-1.793.19-.814.102-1.447-1.897-3.275z"/><circle fill="#fff" cx="74.63" cy="86.25" r="8.87"/><circle cx="74.646" cy="86.363" r="3.814"/><path d="M94.436 71.792l-2.757-5.35c-13.656-5.833-27.49-2.858-33.864-.218l-2.72 5.28c1.995-1.218 20.557-10.003 39.34.288z"/></mask></defs><path fill="#1a1b1e" mask="url(#a)" d="M74.716 33.388l-37.13 72.368h74.26"/></svg>