<svg xmlns="http://www.w3.org/2000/svg" width="150" height="150" viewBox="0 0 150 150"><linearGradient id="a" gradientUnits="userSpaceOnUse" x1="74.948" y1="19.754" x2="74.948" y2="159.19"><stop offset=".357" stop-color="#FDD134"/><stop offset=".988" stop-color="#F9A21B"/></linearGradient><path fill="url(#a)" d="M149.896 74.97c0 41.42-33.58 75-75 75S0 116.42 0 75C0 33.58 33.475-.03 74.896-.03c41.42 0 75 33.578 75 75z"/><radialGradient id="b" cx="77.218" cy="38.848" r="131.254" gradientUnits="userSpaceOnUse"><stop offset=".316" stop-color="#FDD134"/><stop offset=".832" stop-color="#EC9921"/></radialGradient><path fill="url(#b)" d="M111.743 105.63l-33.857-.38v-.487l-37.415-1.416-22.94 18.836s22.517 26.968 59.69 26.58l-1.5.17c37.594.708 56.06-27.167 56.06-27.167l-20.037-16.136z"/><linearGradient id="c" gradientUnits="userSpaceOnUse" x1="25.703" y1="198.782" x2="32.077" y2="129.543" gradientTransform="matrix(.997 .084 -.084 .997 66.28 -129.315)"><stop offset=".001" stop-color="#FFF115"/><stop offset=".935" stop-color="#FFEA88" stop-opacity="0"/></linearGradient><path fill="url(#c)" d="M80.518 1.158l-6.174 73.166 19.954-71.18c-4.485-1.215-9.257-.85-13.78-1.986z"/><linearGradient id="d" gradientUnits="userSpaceOnUse" x1="-241.358" y1="589.369" x2="-234.984" y2="520.128" gradientTransform="matrix(.913 .407 -.407 .913 535.723 -367.794)"><stop offset=".001" stop-color="#FFF115"/><stop offset=".935" stop-color="#FFEA88" stop-opacity="0"/></linearGradient><path fill="url(#d)" d="M109.41 8.828c-1.708-.617-3.847-1.173-5.536-2.21l-30.54 68.48 43.147-61.916c-2.296-1.598-4.463-3.414-7.07-4.354z"/><linearGradient id="e" gradientUnits="userSpaceOnUse" x1="-336.332" y1="1113.27" x2="-329.959" y2="1044.026" gradientTransform="matrix(.701 .714 -.714 .701 1106.11 -466.935)"><stop offset=".001" stop-color="#FFF115"/><stop offset=".935" stop-color="#FFEA88" stop-opacity="0"/></linearGradient><path fill="url(#e)" d="M130.39 25.733c-.934-1.305-2.012-2.493-2.95-3.76L73.333 75.097l62.9-41.853c-1.637-2.738-3.984-4.91-5.844-7.512z"/><linearGradient id="f" gradientUnits="userSpaceOnUse" x1="-232.922" y1="1634.309" x2="-226.548" y2="1565.066" gradientTransform="matrix(.391 .921 -.921 .391 1672.205 -349.566)"><stop offset=".001" stop-color="#FFF115"/><stop offset=".935" stop-color="#FFEA88" stop-opacity="0"/></linearGradient><path fill="url(#f)" d="M145.394 50.754c-.37-1.495-.703-3.946-1.66-5.52l-70.4 29.864 74.087-15.95c-.668-2.8-1.332-5.6-2.026-8.394z"/><linearGradient id="g" gradientUnits="userSpaceOnUse" x1="54.943" y1="2082.382" x2="61.318" y2="2013.135" gradientTransform="matrix(.026 1 -1 .026 2156.916 -33.785)"><stop offset=".001" stop-color="#FFF115"/><stop offset=".935" stop-color="#FFEA88" stop-opacity="0"/></linearGradient><path fill="url(#g)" d="M148.53 79.584c.248-2.127.878-4.32.98-6.48L73.332 75.1l74.24 12.21c.324-2.575.655-5.148.956-7.724z"/><linearGradient id="h" gradientUnits="userSpaceOnUse" x1="486.039" y1="2393.426" x2="492.413" y2="2324.182" gradientTransform="matrix(-.342 .94 -.94 -.342 2491.691 438.316)"><stop offset=".001" stop-color="#FFF115"/><stop offset=".935" stop-color="#FFEA88" stop-opacity="0"/></linearGradient><path fill="url(#h)" d="M141.584 107.668c1.203-2.1 3.038-4.036 3.617-6.426L73.335 75.098l64.956 38.764c.89-2.16 2.123-4.15 3.294-6.194z"/><linearGradient id="i" gradientUnits="userSpaceOnUse" x1="2474.67" y1="759.95" x2="2481.044" y2="690.712" gradientTransform="matrix(-.516 -.857 .857 -.516 696.635 2588.274)"><stop offset=".001" stop-color="#FFF115"/><stop offset=".935" stop-color="#FFEA88" stop-opacity="0"/></linearGradient><path fill="url(#i)" d="M4.97 100.303c1.293 2.59 2.533 5.208 3.842 7.792.71 1.4 1.393 3.03 2.127 4.61l62.394-37.607L4.97 100.303z"/><linearGradient id="j" gradientUnits="userSpaceOnUse" x1="2252.584" y1="276.227" x2="2258.957" y2="206.991" gradientTransform="matrix(-.167 -.986 .986 -.167 172.74 2342.477)"><stop offset=".001" stop-color="#FFF115"/><stop offset=".935" stop-color="#FFEA88" stop-opacity="0"/></linearGradient><path fill="url(#j)" d="M1.126 73.522c-.027 4.533-.13 9.2.443 13.7l71.764-12.124-72.208-1.576z"/><linearGradient id="k" gradientUnits="userSpaceOnUse" x1="1870.968" y1="-93.236" x2="1877.341" y2="-162.478" gradientTransform="matrix(.206 -.979 .979 .206 -224.698 1923.894)"><stop offset=".001" stop-color="#FFF115"/><stop offset=".935" stop-color="#FFEA88" stop-opacity="0"/></linearGradient><path fill="url(#k)" d="M6.878 47.245C5.563 50.74 3.8 54.085 2.672 57.62c-.214.816-.407 1.638-.578 2.464l71.24 15.014L6.877 47.245z"/><linearGradient id="l" gradientUnits="userSpaceOnUse" x1="1378.154" y1="-294.966" x2="1384.528" y2="-364.205" gradientTransform="matrix(.55 -.835 .835 .55 -441.356 1385.833)"><stop offset=".001" stop-color="#FFF115"/><stop offset=".935" stop-color="#FFEA88" stop-opacity="0"/></linearGradient><path fill="url(#l)" d="M20.827 23.985c-1.524 2.25-3.25 4.34-5.083 6.348-1.31 1.438-2.436 2.944-3.524 4.482l61.115 40.283-52.508-51.113z"/><linearGradient id="m" gradientUnits="userSpaceOnUse" x1="846.994" y1="-304.793" x2="853.368" y2="-374.031" gradientTransform="matrix(.818 -.575 .575 .818 -445.706 808.563)"><stop offset=".001" stop-color="#FFF115"/><stop offset=".935" stop-color="#FFEA88" stop-opacity="0"/></linearGradient><path fill="url(#m)" d="M42.968 7.79c-2.053 1.046-3.925 2.42-5.914 3.597-2.008 1.187-4.01 2.383-6.006 3.59l42.286 60.12L42.968 7.79z"/><linearGradient id="n" gradientUnits="userSpaceOnUse" x1="349.163" y1="-117.018" x2="355.537" y2="-186.261" gradientTransform="matrix(.972 -.236 .236 .972 -238.667 267.63)"><stop offset=".001" stop-color="#FFF115"/><stop offset=".935" stop-color="#FFEA88" stop-opacity="0"/></linearGradient><path fill="url(#n)" d="M60.675 2.194c-1.572.503-3.142.998-4.746 1.138l17.403 71.766L69.695.54c-3.06.228-6.114.723-9.02 1.654z"/><path fill="#FFF16E" d="M75 0C33.25 0 0 33.58 0 75c0 41.422 33.578 75 75 75 41.42 0 75-33.578 75-75 0-41.42-33.58-75-75-75zm0 148.542c-40.617 0-73.542-32.925-73.542-73.542C1.458 34.384 34.383 1.458 75 1.458c40.616 0 73.542 32.926 73.542 73.542 0 40.617-32.926 73.542-73.542 73.542z"/><g><radialGradient id="o" cx="74.612" cy="69.54" r="36.66" gradientUnits="userSpaceOnUse"><stop offset="0" stop-color="#FDD0A1"/><stop offset=".877" stop-color="#F1A745"/><stop offset="1" stop-color="#F1A636"/></radialGradient><path fill="url(#o)" d="M74.612 33.356l-37.13 72.37h74.26"/><radialGradient id="p" cx="73.027" cy="83.435" r="44.876" gradientUnits="userSpaceOnUse"><stop offset="0" stop-color="#FDD0A1" stop-opacity="0"/><stop offset=".917" stop-color="#EC8F31"/></radialGradient><path fill="url(#p)" d="M111.734 105.733s-61.106.192-60.915 0S90.193 64.1 90.193 64.1l21.54 41.633z"/><radialGradient id="q" cx="75.552" cy="80.353" r="26.529" gradientUnits="userSpaceOnUse"><stop offset=".007" stop-color="#FDDFC0"/><stop offset=".925" stop-color="#E48A39"/></radialGradient><path fill="url(#q)" d="M52.704 87.08s20.96 22.708 44.016-.35c0 0-4.19 16.188-20.61 17.47-.002 0-18.632 1.28-23.406-17.12z"/><radialGradient id="r" cx="74.717" cy="83.086" r="24.266" gradientUnits="userSpaceOnUse"><stop offset=".134" stop-color="#FFF"/><stop offset=".314" stop-color="#FAFDFF"/><stop offset=".706" stop-color="#C9EAFB"/></radialGradient><path fill="url(#r)" d="M94.247 83.148s-7.936-7.11-19.544-7.542v-.008c-.023 0-.046.003-.068.004-.023 0-.046-.003-.07-.004v.008c-11.607.43-19.542 7.542-19.542 7.542-2 1.827-2.087 2.46-1.896 3.274.144.604 1.31 1.793 1.31 1.793 7.596 7.95 18.768 8.355 20.13 8.373h.137c1.362-.018 12.534-.423 20.13-8.373 0 0 1.168-1.19 1.31-1.793.19-.813.102-1.446-1.897-3.274z"/><radialGradient id="s" cx="74.527" cy="86.217" r="8.87" gradientUnits="userSpaceOnUse"><stop offset=".574" stop-color="#FDD134"/><stop offset=".781" stop-color="#EC9921"/><stop offset="1" stop-color="#D27C1F"/></radialGradient><circle fill="url(#s)" cx="74.527" cy="86.218" r="8.87"/><radialGradient id="t" cx="74.567" cy="64.943" r="11.646" gradientUnits="userSpaceOnUse"><stop offset=".007" stop-color="#FDDFC0"/><stop offset=".925" stop-color="#E48A39"/></radialGradient><path fill="url(#t)" d="M52.646 85.426c-.036.102 7.74-9.803 21.906-10.355 0 0 14.422.536 21.935 10.05 0 0-3.5-14.495-22.97-14.495 0 0-16.08.908-20.87 14.8z"/><radialGradient id="u" cx="75.238" cy="68.151" r="24.532" fx="64.009" fy="68.203" gradientUnits="userSpaceOnUse"><stop offset=".007" stop-color="#FDDFC0"/><stop offset=".925" stop-color="#E48A39"/></radialGradient><path fill="url(#u)" d="M52.646 86.093c-.036.102 7.74-9.803 21.906-10.355 0 0 14.422.535 21.935 10.05 0 0-4.376-14.496-22.97-14.496 0 0-16.08.908-20.87 14.8z"/><circle fill="#2B2D32" cx="74.542" cy="86.332" r="3.814"/><radialGradient id="v" cx="-297.405" cy="118.304" r="14.591" gradientTransform="matrix(-.017 1.055 -.979 .384 177.409 348.234)" gradientUnits="userSpaceOnUse"><stop offset="0" stop-color="#FAFDFF"/><stop offset=".453" stop-color="#FAFDFF"/><stop offset="1" stop-color="#EC9921" stop-opacity="0"/></radialGradient><path fill="url(#v)" d="M70.833 79.962c.405-.23.49-.15 1.29-.06 0 0 .986-.036.683.87l-.47 1.405s-.277.616.227.645l1.208.067s.632-.09.14 1.38c0 0-.44 1.453-1.048 1.42l-1.19-.067s-.02-.002-.056 0c-.132.012-.458.084-.61.538 0 0-.155.72-.172.948-.02.24.04.926.04.926s-.114.736-1.312.67c0 0-.853.15-.887-.848 0 0-.047-.602-.035-.816.014-.227.134-.947.134-.947s.213-.61-.308-.638l-1.157-.064s-.47.054-.238-.98c0 0 .238-.866.522-1.296.04-.057.18-.298.22-.336.74-1.045 2-2.26 3.02-2.816z"/><radialGradient id="w" cx="95.118" cy="85.523" r="3.35" gradientUnits="userSpaceOnUse"><stop offset="0" stop-color="#FDD0A1"/><stop offset=".917" stop-color="#F0AB8B"/></radialGradient><path fill="url(#w)" d="M93.624 83.4s1.3 3.246 0 5.953l2.977-3.12-2.976-2.833z"/><radialGradient id="x" cx="55.016" cy="85.397" r="4.714" gradientUnits="userSpaceOnUse"><stop offset="0" stop-color="#FDD0A1"/><stop offset=".917" stop-color="#F0AB8B"/></radialGradient><path fill="url(#x)" d="M57.183 82.434s-1.725 4.105.026 8.31c0 0-4.323-3.474-4.404-4.286 0 0 1.86-3.13 4.377-4.024z"/><radialGradient id="y" cx="74.639" cy="86.426" r="25.074" gradientUnits="userSpaceOnUse"><stop offset=".322" stop-color="#DB9A21"/><stop offset="1" stop-color="#863E17"/></radialGradient><path fill="url(#y)" d="M96.202 85.294c-6.746-10.177-21.65-9.934-21.65-9.934-14.03 0-20.92 9.53-21.385 10.054 0 0-.64.57-.64 1.11 0 0-.073.367.46 1.016l.326.42c.467.52 7.595 9 21.258 9.532 0 0 14.063-.24 21.577-9.755 0 0 .59-.676.605-1.262.012-.452-.55-1.18-.55-1.18zm-43.12 1.043l.004-.005v.01l-.003-.005zm21.49 10.29c-14.69-.622-21.275-9.762-21.462-10.296.312-.253 7.554-9.187 21.442-9.727 0 0 14.05.24 21.565 9.74C89.09 96.554 74.57 96.628 74.57 96.628z"/><g><radialGradient id="z" cx="74.663" cy="67.403" r="14.246" gradientUnits="userSpaceOnUse"><stop offset=".322" stop-color="#DB9A21"/><stop offset="1" stop-color="#863E17"/></radialGradient><path fill="url(#z)" d="M94.332 71.76l-2.757-5.348c-13.655-5.834-27.49-2.86-33.863-.22l-2.72 5.282c1.995-1.22 20.558-10.004 39.34.287z"/></g></g><path fill="#C07D2A" d="M37.588 105.743l74.146-.01 3.46 2.595H34.32"/></svg>