<?xml version="1.0" encoding="utf-8"?>
<!-- Generator: Adobe Illustrator 19.1.0, SVG Export Plug-In . SVG Version: 6.00 Build 0)  -->
<svg version="1.1" id="Layer_1" xmlns="http://www.w3.org/2000/svg" xmlns:xlink="http://www.w3.org/1999/xlink" x="0px" y="0px"
	 viewBox="0 0 854.6 854.6" style="enable-background:new 0 0 854.6 854.6;" xml:space="preserve">
<style type="text/css">
	.st0{fill:none;stroke:#000000;stroke-width:3;stroke-linecap:round;stroke-linejoin:round;stroke-miterlimit:10;}
</style>
<path class="st0" d="M475.5,74c0,3.1-0.2,6.2-0.4,9c8.2,1,9.5,5.3,9.6,9.5c4.6-2.2,10.3-4.1,16.5-4.9c-3.2-11.3-12.7-21-26.6-22.3
	C475.2,68.3,475.5,71.2,475.5,74z"/>
<path class="st0" d="M369.9,92.6c0.2-4.2,1.4-8.6,9.6-9.5c-0.3-2.9-0.4-5.9-0.4-9c0-2.9,0.3-5.8,0.9-8.7
	c-13.9,1.3-23.4,11-26.6,22.3C359.6,88.5,365.3,90.5,369.9,92.6z"/>
<path class="st0" d="M711.1,211.5c-2.2,2.2-4.5,4.2-6.7,6.1c5.1,6.5,2.9,10.4,0.1,13.5c4.8,1.8,10.2,4.4,15.1,8.2
	c5.8-10.3,5.9-23.8-3-34.6C715,207.2,713.2,209.5,711.1,211.5z"/>
<path class="st0" d="M623.4,150.1c3.1-2.9,7.1-5,13.5,0.1c1.9-2.2,3.9-4.5,6.1-6.7c2-2,4.3-3.9,6.8-5.5c-10.7-8.9-24.3-8.8-34.6-3
	C619,139.8,621.6,145.2,623.4,150.1z"/>
<path class="st0" d="M74,379.2c3.1,0,6.2,0.2,9,0.4c1-8.2,5.3-9.5,9.5-9.6c-2.2-4.6-4.1-10.3-4.9-16.5c-11.3,3.2-21,12.7-22.3,26.6
	C68.3,379.5,71.2,379.2,74,379.2z"/>
<path class="st0" d="M92.6,484.7c-4.2-0.2-8.6-1.4-9.5-9.6c-2.9,0.3-5.9,0.4-9,0.4c-2.9,0-5.8-0.3-8.7-0.9
	c1.3,13.9,11,23.4,22.3,26.6C88.5,495,90.5,489.4,92.6,484.7z"/>
<path class="st0" d="M211.5,143.6c2.2,2.2,4.2,4.5,6.1,6.7c6.5-5.1,10.4-2.9,13.5-0.1c1.8-4.8,4.4-10.2,8.2-15.1
	c-10.3-5.8-23.8-5.9-34.6,3C207.2,139.7,209.5,141.5,211.5,143.6z"/>
<path class="st0" d="M150.1,231.3c-2.9-3.1-5-7.1,0.1-13.5c-2.2-1.9-4.5-3.9-6.7-6.1c-2-2-3.9-4.3-5.5-6.8
	c-8.9,10.7-8.8,24.3-3,34.6C139.8,235.7,145.2,233.1,150.1,231.3z"/>
<path class="st0" d="M379.1,780.6c0-3.1,0.2-6.2,0.4-9c-8.2-1-9.5-5.3-9.6-9.5c-4.6,2.2-10.3,4.1-16.5,4.9
	c3.2,11.3,12.7,21,26.6,22.3C379.5,786.4,379.1,783.5,379.1,780.6z"/>
<path class="st0" d="M484.7,762c-0.2,4.2-1.4,8.6-9.6,9.5c0.3,2.9,0.4,5.9,0.4,9c0,2.9-0.3,5.8-0.9,8.7c13.9-1.3,23.4-11,26.6-22.3
	C495,766.1,489.3,764.2,484.7,762z"/>
<path class="st0" d="M143.5,643.1c2.2-2.2,4.5-4.2,6.7-6.1c-5.1-6.5-2.9-10.4-0.1-13.5c-4.8-1.8-10.2-4.4-15.1-8.2
	c-5.8,10.3-5.9,23.8,3,34.6C139.6,647.4,141.4,645.1,143.5,643.1z"/>
<path class="st0" d="M231.2,704.6c-3.1,2.9-7.1,5-13.5-0.1c-1.9,2.2-3.9,4.5-6.1,6.7c-2,2-4.3,3.9-6.8,5.5c10.7,8.9,24.3,8.8,34.6,3
	C235.6,714.8,233,709.4,231.2,704.6z"/>
<path class="st0" d="M780.6,475.4c-3.1,0-6.2-0.2-9-0.4c-1,8.2-5.3,9.5-9.5,9.6c2.2,4.6,4.1,10.3,4.9,16.5
	c11.3-3.2,21-12.7,22.3-26.6C786.3,475.1,783.4,475.4,780.6,475.4z"/>
<path class="st0" d="M762,369.9c4.2,0.2,8.6,1.4,9.5,9.6c2.9-0.3,5.9-0.4,9-0.4c2.9,0,5.8,0.3,8.7,0.9c-1.3-13.9-11-23.4-22.3-26.6
	C766.1,359.6,764.1,365.3,762,369.9z"/>
<path class="st0" d="M643.1,711.1c-2.2-2.2-4.2-4.5-6.1-6.7c-6.5,5.1-10.4,2.9-13.5,0.1c-1.8,4.8-4.4,10.2-8.2,15.1
	c10.3,5.8,23.8,5.9,34.6-3C647.4,714.9,645.1,713.1,643.1,711.1z"/>
<path class="st0" d="M704.5,623.3c2.9,3.1,5,7.1-0.1,13.5c2.2,1.9,4.5,3.9,6.7,6.1c2,2,3.9,4.3,5.5,6.8c8.9-10.7,8.8-24.3,3-34.6
	C714.8,618.9,709.4,621.6,704.5,623.3z"/>
<path class="st0" d="M364.6,302.1c3.4-0.8,6.6-1.8,9.5-3l0.1-0.1c2.8-1.2,5.8-2.7,8.8-4.6c-4.2-5.5-8.2-11-11.6-16.4
	c-1.5,0.7-3,1.4-4.7,2l-0.4,0.3c-1.7,0.8-3.4,1.4-5,2.1C362.6,288.6,363.7,295.2,364.6,302.1z"/>
<path class="st0" d="M294.4,383c1.9-3,3.4-6,4.6-8.8l0,0c1.2-2.8,2.2-6,3-9.5c-6.9-0.9-13.5-2-19.7-3.4c-0.6,1.7-1.3,3.3-2.1,5l0,0
	c-0.7,1.8-1.4,3.4-2.2,5C283.3,374.9,288.8,378.8,294.4,383z"/>
<path class="st0" d="M480.4,299c2.8,1.2,6,2.2,9.5,3c0.9-6.9,2-13.5,3.4-19.7c-1.7-0.6-3.3-1.3-5-2.1l0,0c-1.8-0.7-3.4-1.4-5-2.2
	c-3.4,5.4-7.4,10.9-11.6,16.4C474.6,296.2,477.6,297.8,480.4,299L480.4,299z"/>
<path class="st0" d="M299,480.5L299,480.5c-1.2-2.9-2.8-5.9-4.7-8.9c-5.5,4.3-11,8.2-16.4,11.6c0.7,1.6,1.5,3.2,2.2,5l0.1,0.1
	c0.8,1.7,1.4,3.4,2.1,5c6.2-1.4,12.8-2.5,19.7-3.4C301.2,486.6,300.2,483.4,299,480.5z"/>
<path class="st0" d="M560.2,471.6c-1.9,3-3.4,6-4.6,8.8l0,0c-1.2,2.8-2.2,6-3,9.5c6.9,0.9,13.5,2,19.7,3.4c0.6-1.7,1.3-3.3,2.1-5
	l0,0c0.7-1.8,1.4-3.4,2.2-5C571.3,479.7,565.8,475.8,560.2,471.6z"/>
<path class="st0" d="M374.2,555.7c-2.8-1.2-6-2.2-9.5-3c-0.9,6.9-2,13.5-3.4,19.7c1.7,0.6,3.3,1.3,5,2.1l0,0c1.8,0.7,3.4,1.4,5,2.2
	c3.4-5.4,7.4-10.9,11.6-16.4C380,558.4,377,556.8,374.2,555.7L374.2,555.7z"/>
<path class="st0" d="M574.5,366.4L574.5,366.4c-0.8-1.8-1.5-3.4-2.1-5.1c-6.2,1.4-12.8,2.5-19.7,3.4c0.8,3.4,1.8,6.6,3,9.5l0.1,0.1
	c1.2,2.8,2.7,5.8,4.6,8.8c5.5-4.3,11-8.2,16.4-11.6C575.9,369.7,575.1,368.1,574.5,366.4z"/>
<path class="st0" d="M490,552.6c-3.4,0.8-6.6,1.8-9.5,3l-0.1,0.1c-2.8,1.2-5.8,2.7-8.8,4.6c4.2,5.5,8.2,11,11.6,16.4
	c1.5-0.7,3-1.4,4.7-2l0.4-0.3c1.7-0.8,3.4-1.4,5-2.1C492,566.1,490.9,559.4,490,552.6z"/>
<path class="st0" d="M204.7,439c15.5,0.4,39.9,4,58.2,22.2c5.2-2.4,10.7-5.3,16.3-8.7c-13.1-13.9-28.4-25.1-35.3-25.1
	c6.9,0,22.2-11.2,35.3-25.1c-5.5-3.4-11.1-6.3-16.3-8.7c-18.3,18.2-42.7,21.8-58.2,22.2c-1.2,0-2.4,0.1-3.5,0.1
	c-21.4,0-41.3-5.6-57.4-14.7c-7.7,4.1-15.3,9-21.8,13.5c10.7,6.8,18.2,12.8,18.2,12.8s-7.4,6.1-18.2,12.8c6.4,4.5,14,9.4,21.8,13.5
	c16.1-9.1,36-14.7,57.4-14.7C202.3,438.9,203.5,439,204.7,439z"/>
<path class="st0" d="M335,567.5c2-5.4,3.8-11.3,5.4-17.6c-19-0.6-37.8,2.3-42.7,7.2c4.9-4.9,7.8-23.7,7.2-42.7
	c-6.3,1.5-12.3,3.3-17.6,5.4c-0.1,27.8-17.2,48.7-28,59.4c-15.1,15.1-33.2,25.1-51,30.1c-2.6,8.4-4.5,17.3-5.9,25
	c12.4-2.8,21.9-3.8,21.9-3.8s-1,9.6-3.8,21.9c7.7-1.4,16.6-3.3,25-5.9c4.9-17.8,15-35.8,30.1-51C286.4,584.7,307.2,567.6,335,567.5z
	"/>
<path class="st0" d="M461,591.6c-2.4-5.2-5.3-10.7-8.6-16.2c-13.9,13.1-25.1,28.4-25.1,35.3c0-6.9-11.1-22.5-25-35.5
	c-3.4,5.5-6.5,11.3-8.8,16.5c18.2,18.3,21.8,42.7,22.2,58.2c0,1.2,0.1,2.4,0.1,3.5c0,21.4-5.6,41.3-14.7,57.4
	c4.1,7.7,9,15.3,13.5,21.8c6.8-10.7,12.8-18.2,12.8-18.2s6.1,7.4,12.8,18.2c4.5-6.4,9.4-14,13.5-21.8c-9.1-16.1-14.7-36-14.7-57.4
	C438.9,638.2,441.3,611.3,461,591.6z"/>
<path class="st0" d="M567.4,519.5c-5.4-2-11.3-3.8-17.6-5.4c-0.6,19,2.3,37.8,7.2,42.7c-4.9-4.9-23.7-7.8-42.7-7.2
	c1.5,6.3,3.3,12.3,5.4,17.6c27.8,0.1,48.7,17.2,59.4,28c15.1,15.1,25.1,33.2,30.1,51c8.4,2.6,17.3,4.5,25,5.9
	c-2.8-12.4-3.8-21.9-3.8-21.9s9.6,1,21.9,3.8c-1.4-7.7-3.3-16.6-5.9-25c-17.8-4.9-35.8-15-51-30.1
	C584.7,568.2,567.5,547.4,567.4,519.5z"/>
<path class="st0" d="M732.5,414.4c-6.4-4.5-14-9.4-21.8-13.5c-16.1,9.1-36,14.7-57.4,14.7c-1.1,0-2.3,0-3.5-0.1
	c-15.5-0.4-39.9-4-58.2-22.2c-5.2,2.4-10.7,5.3-16.3,8.7c13.1,13.9,28.4,25.1,35.3,25.1c-6.9,0-22.2,11.2-35.3,25.1
	c5.5,3.4,11.1,6.3,16.3,8.7c18.3-18.2,42.7-21.8,58.2-22.2c1.2,0,2.4-0.1,3.5-0.1c21.4,0,41.3,5.6,57.4,14.7
	c7.7-4.1,15.3-9,21.8-13.5c-10.7-6.8-18.2-12.8-18.2-12.8S721.8,421.2,732.5,414.4z"/>
<path class="st0" d="M519.6,287.2c-2,5.4-3.8,11.3-5.4,17.6c19,0.6,37.8-2.3,42.7-7.2c-4.9,4.9-7.8,23.7-7.2,42.7
	c6.3-1.5,12.3-3.3,17.6-5.4c0.1-27.8,17.2-48.7,28-59.4c15.1-15.1,33.2-25.1,51-30.1c2.6-8.4,4.5-17.3,5.9-25
	c-12.4,2.8-21.9,3.8-21.9,3.8s1-9.6,3.8-21.9c-7.7,1.4-16.6,3.3-25,5.9c-4.9,17.8-15,35.8-30.1,51
	C568.2,269.9,547.4,287.1,519.6,287.2z"/>
<path class="st0" d="M393.6,263.1c2.4,5.2,5.3,10.7,8.6,16.2c13.9-13.1,25.1-28.4,25.1-35.3c0,6.9,11.2,22.2,25.1,35.3
	c3.4-5.5,6.3-11.1,8.7-16.3c-18.2-18.3-21.8-42.7-22.2-58.2c0-1.2-0.1-2.4-0.1-3.5c0-21.4,5.6-41.3,14.7-57.4
	c-4.1-7.7-9-15.3-13.5-21.8c-6.8,10.7-12.8,18.2-12.8,18.2s-6.1-7.4-12.8-18.2c-4.5,6.4-9.4,14-13.5,21.8
	c9.1,16.1,14.7,36,14.7,57.4C415.7,216.4,413.3,243.3,393.6,263.1z"/>
<path class="st0" d="M287.2,335.1c5.4,2,11.3,3.8,17.6,5.4c0.6-19-2.3-37.8-7.2-42.7c4.9,4.9,23.7,7.8,42.7,7.2
	c-1.5-6.3-3.3-12.3-5.4-17.6c-27.8-0.1-48.7-17.2-59.4-28c-15.1-15.1-25.1-33.2-30.1-51c-8.4-2.6-17.3-4.5-25-5.9
	c2.8,12.4,3.8,21.9,3.8,21.9s-9.6-1-21.9-3.8c1.4,7.7,3.3,16.6,5.9,25c17.8,4.9,35.8,15,51,30.1
	C269.9,286.4,287.1,307.3,287.2,335.1z"/>
<path class="st0" d="M241.7,467.1c-14.7,0-22-14.4-24.9-27.1c-5.9-0.8-11.2-1-15.6-1c-1.6,0-3.1,0.1-4.7,0.2
	c-2.1,11.1-8.3,23.5-25.4,23.5c-23.5,0-66.2-35.3-66.2-35.3s42.7-35.3,66.2-35.3c17.1,0,23.3,12.4,25.4,23.5
	c1.6,0.1,3.1,0.2,4.7,0.2c4.4,0,9.7-0.2,15.6-1c2.9-12.7,10.2-27.1,24.9-27.1c17.2,0,50,20.2,70.6,39.7
	C291.7,446.9,258.9,467.1,241.7,467.1z"/>
<path class="st0" d="M530.4,268c10.4-10.4,25.8-5.4,36.8,1.5c4.7-3.6,8.7-7.2,11.8-10.3c1.1-1.1,2.1-2.3,3.2-3.4
	c-6.3-9.4-10.8-22.5,1.3-34.6c16.6-16.6,71.8-21.8,71.8-21.8s-5.2,55.1-21.8,71.8c-12.1,12.1-25.2,7.7-34.6,1.3
	c-1.1,1.1-2.3,2.1-3.4,3.2c-3.1,3.1-6.7,7.1-10.3,11.8c6.9,11,12,26.4,1.5,36.8c-12.2,12.2-49.6,21.1-78,21.8
	C509.3,317.6,518.2,280.1,530.4,268z"/>
<path class="st0" d="M387.6,241.7c0-14.7,14.4-22,27.1-24.9c0.8-5.9,1-11.2,1-15.6c0-1.6-0.1-3.1-0.2-4.7
	c-11.1-2.1-23.5-8.3-23.5-25.4c0-23.5,35.3-66.2,35.3-66.2s35.3,42.7,35.3,66.2c0,17.1-12.4,23.3-23.5,25.4
	c-0.1,1.6-0.2,3.1-0.2,4.7c0,4.4,0.2,9.7,1,15.6c12.7,2.9,27.1,10.2,27.1,24.9c0,17.2-20.2,50-39.7,70.6
	C407.8,291.7,387.6,258.9,387.6,241.7z"/>
<path class="st0" d="M268,324.3c-10.4-10.4-5.4-25.8,1.5-36.8c-3.6-4.7-7.2-8.7-10.3-11.8c-1.1-1.1-2.3-2.1-3.4-3.2
	c-9.4,6.3-22.5,10.8-34.6-1.3c-16.6-16.6-21.8-71.8-21.8-71.8s55.1,5.2,71.8,21.8c12.1,12.1,7.7,25.2,1.3,34.6
	c1.1,1.1,2.1,2.3,3.2,3.4c3.1,3.1,7.1,6.7,11.8,10.3c11-6.9,26.4-12,36.8-1.5c12.2,12.2,21.1,49.6,21.8,78
	C317.6,345.4,280.1,336.4,268,324.3z"/>
<path class="st0" d="M324.2,586.7c-10.4,10.4-25.8,5.4-36.8-1.5c-4.7,3.6-8.7,7.2-11.8,10.3c-1.1,1.1-2.1,2.3-3.2,3.4
	c6.3,9.4,10.8,22.5-1.3,34.6c-16.6,16.6-71.8,21.8-71.8,21.8s5.2-55.1,21.8-71.8c12.1-12.1,25.2-7.7,34.6-1.3
	c1.1-1.1,2.3-2.1,3.4-3.2c3.1-3.1,6.7-7.1,10.3-11.8c-6.9-11-12-26.4-1.5-36.8c12.2-12.2,49.6-21.1,78-21.8
	C345.3,537,336.4,574.5,324.2,586.7z"/>
<path class="st0" d="M467,612.9c0,14.7-14.4,22-27.1,24.9c-0.8,5.9-1,11.2-1,15.6c0,1.6,0.1,3.1,0.2,4.7
	c11.1,2.1,23.5,8.3,23.5,25.4c0,23.5-35.3,66.2-35.3,66.2S392,707,392,683.5c0-17.1,12.4-23.3,23.5-25.4c0.1-1.6,0.2-3.1,0.2-4.7
	c0-4.4-0.2-9.7-1-15.6c-12.7-2.9-27.1-10.2-27.1-24.9c0-17.2,20.2-50,39.7-70.6C446.8,562.9,467,595.7,467,612.9z"/>
<path class="st0" d="M586.6,530.4c10.4,10.4,5.4,25.8-1.5,36.8c3.6,4.7,7.2,8.7,10.3,11.8c1.1,1.1,2.3,2.1,3.4,3.2
	c9.4-6.3,22.5-10.8,34.6,1.3c16.6,16.6,21.8,71.8,21.8,71.8s-55.1-5.2-71.8-21.8c-12.1-12.1-7.7-25.2-1.3-34.6
	c-1.1-1.1-2.1-2.3-3.2-3.4c-3.1-3.1-7.1-6.7-11.8-10.3c-11,6.9-26.4,12-36.8,1.5c-12.2-12.2-21.1-49.6-21.8-78
	C537,509.3,574.5,518.2,586.6,530.4z"/>
<path class="st0" d="M683.5,462.6c-17.1,0-23.3-12.4-25.4-23.5c-1.6-0.1-3.1-0.2-4.7-0.2c-4.4,0-9.7,0.2-15.6,1
	c-2.9,12.7-10.2,27.1-24.9,27.1c-17.2,0-50-20.2-70.6-39.7c20.6-19.6,53.4-39.7,70.6-39.7c14.7,0,22,14.4,24.9,27.1
	c5.9,0.8,11.2,1,15.6,1c1.6,0,3.1-0.1,4.7-0.2c2.1-11.1,8.3-23.5,25.4-23.5c23.5,0,66.2,35.3,66.2,35.3S707,462.6,683.5,462.6z"/>
<path class="st0" d="M512.1,427.3c-13.9-14.5-23.4-25.3-23.5-25.4l0,0c0,0-1-14.4-1.3-34.6c-19.6-0.4-33.6-1.3-34.5-1.3l0,0
	c0,0,0,0,0,0l0,0l0,0c-0.7-0.6-11.3-9.9-25.3-23.5c0,0,0,0,0,0"/>
<path class="st0" d="M427.3,512.1c14.5-14,25.4-23.5,25.4-23.5s14.4-1,34.6-1.4c0.4-19.6,1.3-33.6,1.3-34.5l0,0c0,0,0,0,0,0l0,0l0,0
	c0.6-0.7,9.9-11.3,23.5-25.3c0,0,0,0,0,0"/>
<path class="st0" d="M342.5,427.4c13.9,14.5,23.4,25.3,23.5,25.4l0,0c0,0,1,14.4,1.3,34.6c19.6,0.4,33.6,1.3,34.5,1.3l0,0
	c0,0,0,0,0,0c0,0,0,0,0,0l0,0c0.7,0.6,11.3,9.9,25.3,23.5c0,0,0,0,0,0"/>
<path class="st0" d="M427.3,342.5c-14.5,14-25.4,23.5-25.4,23.5s-14.4,1-34.6,1.4c-0.4,19.6-1.3,33.6-1.3,34.5l0,0c0,0,0,0,0,0l0,0
	l0,0c-0.6,0.7-9.9,11.2-23.4,25.2"/>
<path class="st0" d="M829.1,427.3c0,0-20.1-30.9-48.5-30.9c-9.6,0-20.3,3.6-30.2,8.2c-6.1-5.8-13.1-12-20.5-17.7
	c12.4-11.9,19.8-26.4,19.8-41.3c0-17.5-9.6-27.6-24.3-28.5c2,0.3,3.8,1.2,5.4,2.5c3.5,2.9,5.7,8,5.7,15c0,8.3-8.3,17.7-17.7,17.7
	c-14.7,0-22.1-11.6-22.1-26.5c0-4.1,0.9-7.8,2.4-11.1c-3.4-1.2-6.7-3.2-9.6-6.1c-10.5-10.5-13.5-23.9-3.1-34.3
	c6.6-6.6,19.1-5.9,25,0c5,5,7,10.2,6.6,14.7c-0.2,2-0.9,3.9-2.1,5.6c9.8-11.1,9.5-25-3-37.4c-10.5-10.5-26-15.5-43.2-15.1
	c1.2-9.3,1.8-18.6,2-27.1c10.3-3.7,20.4-8.8,27.2-15.6c19.8-19.8,12.7-55.1,12.5-56.1"/>
<path class="st0" d="M711.4,143.2C711.4,143.2,711.4,143.2,711.4,143.2c0,0-36.1-7.7-56.2,12.4c-6.8,6.8-11.9,16.9-15.6,27.2
	c-8.4,0.2-17.8,0.8-27.1,2c0.3-17.2-4.6-32.7-15.1-43.2c-12.4-12.4-26.3-12.8-37.4-3c1.7-1.2,3.5-1.9,5.6-2.1
	c4.5-0.5,9.7,1.6,14.7,6.6c5.9,5.9,6.6,18.3,0,25c-10.4,10.4-23.8,7.4-34.3-3.1c-2.9-2.9-4.9-6.1-6.1-9.5c-3.3,1.6-7,2.4-11.1,2.4
	c-14.9,0-26.5-7.4-26.5-22.1c0-9.4,9.4-17.7,17.7-17.7c7,0,12.2,2.2,15,5.7c1.3,1.6,2.1,3.4,2.5,5.4c-0.9-14.8-11-24.3-28.5-24.3
	c-14.9,0-29.4,7.4-41.3,19.8c-5.7-7.4-11.9-14.4-17.7-20.5c4.7-9.9,8.2-20.6,8.2-30.2c0-28.4-30.9-48.5-30.9-48.5"/>
<path class="st0" d="M143.3,143.3c-0.1,0-0.1,0-0.1,0s-7.6,36.1,12.5,56.2c6.8,6.8,16.9,11.9,27.2,15.6c0.2,8.4,0.8,17.8,2,27.1
	c-17.2-0.3-32.7,4.6-43.2,15.1c-12.4,12.4-12.8,26.3-3,37.4c-1.2-1.7-1.9-3.5-2.1-5.6c-0.5-4.5,1.6-9.7,6.6-14.7
	c5.9-5.9,18.3-6.6,25,0c10.4,10.4,7.4,23.8-3.1,34.3c-2.9,2.9-6.1,4.9-9.5,6.1c1.6,3.3,2.4,7,2.4,11.1c0,14.9-7.4,26.5-22.1,26.5
	c-9.4,0-17.7-9.4-17.7-17.7c0-7,2.2-12.2,5.7-15c1.6-1.3,3.4-2.1,5.4-2.5c-14.8,0.9-24.3,11-24.3,28.5c0,14.9,7.4,29.4,19.8,41.3
	c-7.4,5.7-14.4,11.9-20.5,17.7c-9.9-4.7-20.6-8.2-30.2-8.2c-27.5,0-47.3,29-48.5,30.8"/>
<path class="st0" d="M427.3,25.5c-0.4,0.3-30.9,20.3-30.9,48.5c0,9.6,3.6,20.3,8.2,30.2c-5.8,6.1-12,13.1-17.7,20.5
	c-11.9-12.4-26.4-19.8-41.3-19.8c-17.5,0-27.6,9.6-28.5,24.3c0.3-2,1.2-3.8,2.5-5.4c2.9-3.5,8-5.7,15-5.7c8.3,0,17.7,8.3,17.7,17.7
	c0,14.7-11.6,22.1-26.5,22.1c-4.1,0-7.8-0.9-11.1-2.4c-1.2,3.5-3.2,6.8-6.2,9.7c-10.5,10.5-23.9,13.5-34.3,3.1
	c-6.6-6.6-5.9-19.1,0-25c5-5,10.2-7,14.7-6.6c2,0.2,3.9,0.9,5.6,2.1c-11.1-9.8-25-9.5-37.4,3c-10.5,10.5-15.5,26-15.1,43.2
	c-9.3-1.2-18.6-1.8-27.1-2c-3.7-10.3-8.8-20.4-15.6-27.2c-19.4-19.4-53.8-13-56-12.5"/>
<path class="st0" d="M25.5,427.4c0,0,20.1,30.9,48.5,30.9c9.6,0,20.3-3.6,30.2-8.2c6.1,5.8,13.1,12,20.5,17.7
	C112.4,479.6,105,494.1,105,509c0,17.5,9.6,27.6,24.3,28.5c-2-0.3-3.8-1.2-5.4-2.5c-3.5-2.9-5.7-8-5.7-15c0-8.3,8.3-17.7,17.7-17.7
	c14.7,0,22.1,11.6,22.1,26.5c0,4.1-0.9,7.8-2.4,11.1c3.4,1.2,6.7,3.2,9.6,6.1c10.5,10.5,13.5,23.9,3.1,34.3c-6.6,6.6-19.1,5.9-25,0
	c-5-5-7-10.2-6.6-14.7c0.2-2,0.9-3.9,2.1-5.6c-9.8,11.1-9.5,25,3,37.4c10.5,10.5,26,15.5,43.2,15.1c-1.2,9.3-1.8,18.6-2,27.1
	c-10.3,3.7-20.4,8.8-27.2,15.6c-19.8,19.8-12.7,55.1-12.5,56.1"/>
<path class="st0" d="M143.2,711.4C143.2,711.4,143.2,711.5,143.2,711.4c0,0,36.1,7.7,56.2-12.4c6.8-6.8,11.9-16.9,15.6-27.2
	c8.4-0.2,17.8-0.8,27.1-2c-0.3,17.2,4.6,32.7,15.1,43.2c12.4,12.4,26.3,12.8,37.4,3c-1.7,1.2-3.5,1.9-5.6,2.1
	c-4.5,0.5-9.7-1.6-14.7-6.6c-5.9-5.9-6.6-18.3,0-25c10.4-10.4,23.8-7.4,34.3,3.1c2.9,2.9,4.9,6.1,6.1,9.5c3.3-1.6,7-2.4,11.1-2.4
	c14.9,0,26.5,7.4,26.5,22.1c0,9.4-9.4,17.7-17.7,17.7c-7,0-12.2-2.2-15-5.7c-1.3-1.6-2.1-3.4-2.5-5.4c0.9,14.8,11,24.3,28.5,24.3
	c14.9,0,29.4-7.4,41.3-19.8c5.7,7.4,11.9,14.4,17.7,20.5c-4.7,9.9-8.2,20.6-8.2,30.2c0,28.4,30.9,48.5,30.9,48.5"/>
<path class="st0" d="M711.3,711.4c0.1,0,0.1,0,0.1,0s7.6-36.1-12.5-56.2c-6.8-6.8-16.9-11.9-27.2-15.6c-0.2-8.4-0.8-17.8-2-27.1
	c17.2,0.3,32.7-4.6,43.2-15.1c12.4-12.4,12.8-26.3,3-37.4c1.2,1.7,1.9,3.5,2.1,5.6c0.5,4.5-1.6,9.7-6.6,14.7c-5.9,5.9-18.3,6.6-25,0
	c-10.4-10.4-7.4-23.8,3.1-34.3c2.9-2.9,6.1-4.9,9.5-6.1c-1.6-3.3-2.4-7-2.4-11.1c0-14.9,7.4-26.5,22.1-26.5
	c9.4,0,17.7,9.4,17.7,17.7c0,7-2.2,12.2-5.7,15c-1.6,1.3-3.4,2.1-5.4,2.5c14.8-0.9,24.3-11,24.3-28.5c0-14.9-7.4-29.4-19.8-41.3
	c7.4-5.7,14.4-11.9,20.5-17.7c9.9,4.7,20.6,8.2,30.2,8.2c27.5,0,47.3-29,48.5-30.8"/>
<path class="st0" d="M427.3,829.1c0.4-0.3,30.9-20.3,30.9-48.5c0-9.6-3.6-20.3-8.2-30.2c5.8-6.1,12-13.1,17.7-20.5
	c11.9,12.4,26.4,19.8,41.3,19.8c17.5,0,27.6-9.6,28.5-24.3c-0.3,2-1.2,3.8-2.5,5.4c-2.9,3.5-8,5.7-15,5.7c-8.3,0-17.7-8.3-17.7-17.7
	c0-14.7,11.6-22.1,26.5-22.1c4.1,0,7.8,0.9,11.1,2.4c1.2-3.5,3.2-6.8,6.2-9.7c10.5-10.5,23.9-13.5,34.3-3.1c6.6,6.6,5.9,19.1,0,25
	c-5,5-10.2,7-14.7,6.6c-2-0.2-3.9-0.9-5.6-2.1c11.1,9.8,25,9.5,37.4-3c10.5-10.5,15.5-26,15.1-43.2c9.3,1.2,18.6,1.8,27.1,2
	c3.7,10.3,8.8,20.4,15.6,27.2c19.4,19.4,53.8,13,56,12.5"/>
<path class="st0" d="M729.1,125.5C729.1,125.5,729.1,125.5,729.1,125.5c0-0.1-60.3-7.9-86.1,17.9c-9.3,9.3-16.1,20.3-16.1,20.3
	s-2.3-20-15.3-33c-11.9-11.9-35.8-26-56.9-10.9c-4.2-25.6-31-32.5-47.9-32.5c-18.4,0-34.2,12.5-34.2,12.5s2.9-12.6,2.9-25.7
	c0-36.4-48.2-73.5-48.2-73.5"/>
<path class="st0" d="M854.1,427.3c0,0-37.1-48.2-73.5-48.2c-13.1,0-25.7,2.9-25.7,2.9s12.5-15.8,12.5-34.2
	c0-16.9-6.9-43.7-32.6-47.9c15.1-21.1,1.1-45-10.8-56.9c-13-13-33-15.3-33-15.3s11-6.9,20.3-16.1c25.3-25.3,18.2-84.1,17.9-86"/>
<path class="st0" d="M427.3,0.5C426.5,1.2,379.1,38,379.1,74c0,13.1,2.9,25.7,2.9,25.7s-15.8-12.5-34.2-12.5
	c-16.9,0-43.8,6.9-47.9,32.7c-21.1-15.2-45-1.1-56.9,10.8c-13,13-15.3,33-15.3,33s-6.9-11-16.1-20.3c-25.1-25.1-83-18.3-85.9-18"/>
<path class="st0" d="M125.6,125.6c-0.1,0-0.1,0-0.1,0s-7.8,60.3,17.9,86.1c9.3,9.3,20.3,16.1,20.3,16.1s-20,2.3-33,15.3
	c-11.9,11.9-26,35.8-10.9,56.9c-25.6,4.2-32.5,31-32.5,47.9c0,18.4,12.5,34.2,12.5,34.2s-12.6-2.9-25.7-2.9
	c-35.5,0-71.7,45.8-73.5,48.1"/>
<path class="st0" d="M427.3,854.1c0.8-0.6,48.2-37.4,48.2-73.5c0-13.1-2.9-25.7-2.9-25.7s15.8,12.5,34.2,12.5
	c16.9,0,43.8-6.9,47.9-32.7c21.1,15.2,45,1.1,56.9-10.8c13-13,15.3-33,15.3-33s6.9,11,16.1,20.3c25.1,25.1,83,18.3,85.9,18"/>
<path class="st0" d="M729,729c0.1,0,0.1,0,0.1,0s7.8-60.3-17.9-86.1c-9.3-9.3-20.3-16.1-20.3-16.1s20-2.3,33-15.3
	c11.9-11.9,26-35.8,10.9-56.9c25.6-4.2,32.5-31,32.5-47.9c0-18.4-12.5-34.2-12.5-34.2s12.6,2.9,25.7,2.9c35.5,0,71.7-45.8,73.5-48.1
	"/>
<path class="st0" d="M125.5,729.1C125.5,729.1,125.5,729.2,125.5,729.1c0,0.1,60.3,7.9,86.1-17.9c9.3-9.3,16.1-20.3,16.1-20.3
	s2.3,20,15.3,33c11.9,11.9,35.8,26,56.9,10.9c4.2,25.6,31,32.5,47.9,32.5c18.4,0,34.2-12.5,34.2-12.5s-2.9,12.6-2.9,25.7
	c0,36.4,48.2,73.5,48.2,73.5"/>
<path class="st0" d="M671.1,183.5c-0.7-0.1-81-6.4-106.3,19c-15.3,15.3-12.5,37.4-12.5,37.4s-22.4-15-43.7,6.2
	c-13.9,13.9-20.8,55.9-21.4,94.6c-13.9-0.4-23.5-1.2-23.5-1.2l0,0c0,0-7.3-6.2-17.5-15.8c26.9-27.7,51.7-62.3,51.7-82
	c0-30.1-26.5-35.3-26.5-35.3s17.7-13.6,17.7-35.3c0-36-61.8-88.6-61.8-88.6"/>
<path class="st0" d="M771.5,427.9c0.4-0.4,0.6-0.7,0.6-0.7s-52.6-61.8-88.6-61.8c-21.7,0-35.3,17.7-35.3,17.7s-5.2-26.5-35.3-26.5
	c-19.6,0-54.3,24.8-82,51.7c-9.6-10.1-15.8-17.5-15.8-17.5l-0.2,0l0.2-0.1c0,0-0.8-9.6-1.2-23.5c38.6-0.6,80.7-7.5,94.6-21.4
	c21.3-21.3,6.2-43.7,6.2-43.7s22.1,2.9,37.4-12.5c25.1-25.1,19.2-104.2,19-106.3"/>
<path class="st0" d="M183.6,183.6c-0.1,0-0.1,0-0.1,0s-6.5,80.9,19,106.4c15.3,15.3,37.4,12.5,37.4,12.5s-15,22.4,6.2,43.7
	c13.9,13.9,55.9,20.8,94.6,21.4c-0.4,13.9-1.2,23.5-1.2,23.5l0,0c0,0-6.2,7.3-15.8,17.5c-27.7-26.9-62.3-51.7-82-51.7
	c-30.1,0-35.3,26.5-35.3,26.5s-13.6-17.7-35.3-17.7c-36,0-88.6,61.8-88.6,61.8s0.2,0.2,0.5,0.6"/>
<path class="st0" d="M427.3,82.5c-0.8,0.7-61.8,52.8-61.8,88.6c0,21.7,17.7,35.3,17.7,35.3s-26.5,5.2-26.5,35.3
	c0,19.6,24.8,54.3,51.7,82c-10.1,9.6-17.5,15.8-17.5,15.8l0,0.1c-2,0.2-11.4,0.9-23.7,1.2c-0.6-38.6-7.5-80.7-21.4-94.6
	c-21.3-21.3-43.7-6.2-43.7-6.2s2.9-22.1-12.5-37.4c-24.8-24.8-101.8-19.3-106.1-19"/>
<path class="st0" d="M427.3,772.1c0.8-0.7,61.8-52.8,61.8-88.6c0-21.7-17.7-35.3-17.7-35.3s26.5-5.2,26.5-35.3
	c0-19.6-24.8-54.3-51.7-82c10.1-9.6,17.5-15.8,17.5-15.8l0-0.1c2-0.2,11.4-0.9,23.7-1.2c0.6,38.6,7.5,80.7,21.4,94.6
	c21.3,21.3,43.7,6.2,43.7,6.2s-2.9,22.1,12.5,37.4c23.5,23.5,94.3,19.8,105,19.1"/>
<path class="st0" d="M669.9,671.1c0.8-0.1,1.3-0.1,1.3-0.1s6.5-80.9-19-106.4c-15.3-15.3-37.4-12.5-37.4-12.5s15-22.4-6.2-43.7
	c-13.9-13.9-55.9-20.8-94.6-21.4c0.4-13.9,1.2-23.5,1.2-23.5l0,0c0,0,6.2-7.3,15.8-17.5c27.7,26.9,62.3,51.7,82,51.7
	c30.1,0,35.3-26.5,35.3-26.5s13.6,17.7,35.3,17.7c33.8,0,82.3-54.5,88.1-61.1"/>
<path class="st0" d="M83,427.9c5.4,6.2,54.1,61.2,88.1,61.2c21.7,0,35.3-17.7,35.3-17.7s5.2,26.5,35.3,26.5
	c19.6,0,54.3-24.8,82-51.7c9.6,10.1,15.8,17.5,15.8,17.5l0.1,0.1c0,0,0.8,9.6,1.2,23.5c-38.6,0.6-80.7,7.5-94.6,21.4
	c-21.3,21.3-6.2,43.7-6.2,43.7s-22.1-2.9-37.4,12.5c-25.5,25.5-19,106.4-19,106.4s0.4,0,1.1,0.1"/>
<path class="st0" d="M184.7,671.3c9.9,0.7,81.5,4.6,105.2-19.1c15.3-15.3,12.5-37.4,12.5-37.4s22.4,15,43.7-6.2
	c13.9-13.9,20.8-55.9,21.4-94.6c13.9,0.4,23.5,1.2,23.5,1.2l0,0c0,0,7.3,6.2,17.5,15.8c-26.9,27.7-51.7,62.3-51.7,82
	c0,30.1,26.5,35.3,26.5,35.3s-17.7,13.6-17.7,35.3c0,36,61.8,88.6,61.8,88.6l0,0"/>
<path class="st0" d="M0.5,427.4c0,0,37.1,48.2,73.5,48.2c13.1,0,25.7-2.9,25.7-2.9s-12.5,15.8-12.5,34.2c0,16.9,6.9,43.7,32.6,47.9
	c-15.1,21.1-1.1,45,10.8,56.9c13,13,33,15.3,33,15.3s-11,6.9-20.3,16.1c-25.3,25.3-18.2,84.1-17.9,86"/>
</svg>
